<svg width="725" height="193" viewBox="0 0 725 193" fill="none" xmlns="http://www.w3.org/2000/svg">
<mask id="mask0_0_1" style="mask-type:alpha" maskUnits="userSpaceOnUse" x="0" y="0" width="118" height="193">
<rect width="118" height="193" fill="#D9D9D9"/>
</mask>
<g mask="url(#mask0_0_1)">
<g filter="url(#filter0_d_0_1)">
<rect width="342.921" height="342.921" rx="10" transform="matrix(0.866044 0.499967 -0.866044 0.499967 296.985 -52)" fill="#171717"/>
</g>
<g filter="url(#filter1_d_0_1)">
<rect width="342.921" height="342.921" rx="10" transform="matrix(0.866044 0.499967 -0.866044 0.499967 296.985 -77)" fill="#464646"/>
</g>
<g filter="url(#filter2_d_0_1)">
<path d="M84.8528 69.4494L120.208 89.86L84.8528 110.271L49.4975 89.86L84.8528 69.4494Z" fill="#EEEEE9"/>
<path d="M226.274 -12.1932L261.63 8.21745L226.274 28.6281L190.919 8.21745L226.274 -12.1932Z" fill="#EEEEE9"/>
<path d="M155.563 28.6281L190.919 49.0387L155.563 69.4494L120.208 49.0387L155.563 28.6281Z" fill="#EEEEE9"/>
<path d="M296.985 -53.0145L332.34 -32.6038L296.985 -12.1932L261.63 -32.6038L296.985 -53.0145Z" fill="#EEEEE9"/>
<path d="M332.34 171.503L296.985 151.092L261.63 171.503L296.985 191.913L332.34 171.503Z" fill="#EEEEE9"/>
<path d="M473.762 89.86L438.406 69.4494L403.051 89.86L438.406 110.271L473.762 89.86Z" fill="#EEEEE9"/>
<path d="M403.051 130.681L367.696 110.271L332.34 130.681L367.696 151.092L403.051 130.681Z" fill="#EEEEE9"/>
<path d="M544.472 49.0387L509.117 28.6281L473.762 49.0387L509.117 69.4494L544.472 49.0387Z" fill="#EEEEE9"/>
<path d="M226.274 151.092L261.63 171.503L226.274 191.913L190.919 171.503L226.274 151.092Z" fill="#EEEEE9"/>
<path d="M367.696 69.4494L403.051 89.86L367.696 110.271L332.34 89.86L367.696 69.4494Z" fill="#EEEEE9"/>
<path d="M296.985 110.271L332.34 130.681L296.985 151.092L261.63 130.681L296.985 110.271Z" fill="#EEEEE9"/>
<path d="M438.406 28.6281L473.762 49.0387L438.406 69.4494L403.051 49.0387L438.406 28.6281Z" fill="#EEEEE9"/>
<path d="M190.919 89.86L155.563 69.4494L120.208 89.86L155.563 110.271L190.919 89.86Z" fill="#EEEEE9"/>
<path d="M332.34 8.21745L296.985 -12.1932L261.63 8.21745L296.985 28.6281L332.34 8.21745Z" fill="#EEEEE9"/>
<path d="M261.63 49.0387L226.274 28.6281L190.919 49.0387L226.274 69.4494L261.63 49.0387Z" fill="#EEEEE9"/>
<path d="M403.051 -32.6038L367.696 -53.0145L332.34 -32.6038L367.696 -12.1932L403.051 -32.6038Z" fill="#EEEEE9"/>
<path d="M49.4975 49.0387L84.8528 69.4494L49.4975 89.86L14.1421 69.4494L49.4975 49.0387Z" fill="#3D3D3D"/>
<path d="M190.919 -32.6038L226.274 -12.1932L190.919 8.21745L155.563 -12.1932L190.919 -32.6038Z" fill="#3D3D3D"/>
<path d="M120.208 8.21745L155.563 28.6281L120.208 49.0387L84.8528 28.6281L120.208 8.21745Z" fill="#3D3D3D"/>
<path d="M261.63 -73.4251L296.985 -53.0145L261.63 -32.6038L226.274 -53.0145L261.63 -73.4251Z" fill="#3D3D3D"/>
<path d="M367.696 191.913L332.34 171.503L296.985 191.913L332.34 212.324L367.696 191.913Z" fill="#3D3D3D"/>
<path d="M509.117 110.271L473.762 89.86L438.406 110.271L473.762 130.681L509.117 110.271Z" fill="#3D3D3D"/>
<path d="M438.406 151.092L403.051 130.681L367.696 151.092L403.051 171.503L438.406 151.092Z" fill="#3D3D3D"/>
<path d="M579.828 69.4494L544.472 49.0387L509.117 69.4494L544.472 89.86L579.828 69.4494Z" fill="#3D3D3D"/>
<path d="M190.919 130.681L226.274 151.092L190.919 171.503L155.563 151.092L190.919 130.681Z" fill="#3D3D3D"/>
<path d="M332.34 49.0387L367.696 69.4494L332.34 89.86L296.985 69.4494L332.34 49.0387Z" fill="#3D3D3D"/>
<path d="M261.63 89.86L296.985 110.271L261.63 130.681L226.274 110.271L261.63 89.86Z" fill="#3D3D3D"/>
<path d="M403.051 8.21745L438.406 28.6281L403.051 49.0387L367.696 28.6281L403.051 8.21745Z" fill="#3D3D3D"/>
<path d="M226.274 110.271L190.919 89.86L155.563 110.271L190.919 130.681L226.274 110.271Z" fill="#3D3D3D"/>
<path d="M367.696 28.6281L332.34 8.21745L296.985 28.6281L332.34 49.0387L367.696 28.6281Z" fill="#3D3D3D"/>
<path d="M296.985 69.4494L261.63 49.0387L226.274 69.4494L261.63 89.86L296.985 69.4494Z" fill="#3D3D3D"/>
<path d="M438.406 -12.1932L403.051 -32.6038L367.696 -12.1932L403.051 8.21745L438.406 -12.1932Z" fill="#3D3D3D"/>
<path d="M155.563 110.271L190.919 130.681L155.563 151.092L120.208 130.681L155.563 110.271Z" fill="#EEEEE9"/>
<path d="M296.985 28.6281L332.34 49.0387L296.985 69.4494L261.63 49.0387L296.985 28.6281Z" fill="#EEEEE9"/>
<path d="M226.274 69.4494L261.63 89.86L226.274 110.271L190.919 89.86L226.274 69.4494Z" fill="#EEEEE9"/>
<path d="M367.696 -12.1932L403.051 8.21745L367.696 28.6281L332.34 8.21745L367.696 -12.1932Z" fill="#EEEEE9"/>
<path d="M261.63 130.681L226.274 110.271L190.919 130.681L226.274 151.092L261.63 130.681Z" fill="#EEEEE9"/>
<path d="M403.051 49.0387L367.696 28.6281L332.34 49.0387L367.696 69.4494L403.051 49.0387Z" fill="#EEEEE9"/>
<path d="M332.34 89.86L296.985 69.4494L261.63 89.86L296.985 110.271L332.34 89.86Z" fill="#EEEEE9"/>
<path d="M473.762 8.21745L438.406 -12.1932L403.051 8.21745L438.406 28.6281L473.762 8.21745Z" fill="#EEEEE9"/>
<path d="M438.406 110.271L473.762 130.681L438.406 151.092L403.051 130.681L438.406 110.271Z" fill="#EEEEE9"/>
<path d="M367.696 151.092L403.051 171.503L367.696 191.913L332.34 171.503L367.696 151.092Z" fill="#EEEEE9"/>
<path d="M509.117 69.4494L544.472 89.86L509.117 110.271L473.762 89.86L509.117 69.4494Z" fill="#EEEEE9"/>
<path d="M120.208 49.0387L84.8528 28.6281L49.4975 49.0387L84.8528 69.4494L120.208 49.0387Z" fill="#EEEEE9"/>
<path d="M261.63 -32.6038L226.274 -53.0145L190.919 -32.6038L226.274 -12.1932L261.63 -32.6038Z" fill="#EEEEE9"/>
<path d="M190.919 8.21745L155.563 -12.1932L120.208 8.21745L155.563 28.6281L190.919 8.21745Z" fill="#EEEEE9"/>
<path d="M332.34 -73.4251L296.985 -93.8357L261.63 -73.4251L296.985 -53.0145L332.34 -73.4251Z" fill="#EEEEE9"/>
<path d="M120.208 89.86L155.563 110.271L120.208 130.681L84.8528 110.271L120.208 89.86Z" fill="#3D3D3D"/>
<path d="M261.63 8.21745L296.985 28.6281L261.63 49.0387L226.274 28.6281L261.63 8.21745Z" fill="#3D3D3D"/>
<path d="M190.919 49.0387L226.274 69.4494L190.919 89.86L155.563 69.4494L190.919 49.0387Z" fill="#3D3D3D"/>
<path d="M332.34 -32.6038L367.696 -12.1932L332.34 8.21745L296.985 -12.1932L332.34 -32.6038Z" fill="#3D3D3D"/>
<path d="M296.985 151.092L261.63 130.681L226.274 151.092L261.63 171.503L296.985 151.092Z" fill="#3D3D3D"/>
<path d="M438.406 69.4494L403.051 49.0387L367.696 69.4494L403.051 89.86L438.406 69.4494Z" fill="#3D3D3D"/>
<path d="M367.696 110.271L332.34 89.86L296.985 110.271L332.34 130.681L367.696 110.271Z" fill="#3D3D3D"/>
<path d="M509.117 28.6281L473.762 8.21745L438.406 28.6281L473.762 49.0387L509.117 28.6281Z" fill="#3D3D3D"/>
<path d="M261.63 171.503L296.985 191.913L261.63 212.324L226.274 191.913L261.63 171.503Z" fill="#3D3D3D"/>
<path d="M403.051 89.86L438.406 110.271L403.051 130.681L367.696 110.271L403.051 89.86Z" fill="#3D3D3D"/>
<path d="M332.34 130.681L367.696 151.092L332.34 171.503L296.985 151.092L332.34 130.681Z" fill="#3D3D3D"/>
<path d="M473.762 49.0387L509.117 69.4494L473.762 89.86L438.406 69.4494L473.762 49.0387Z" fill="#3D3D3D"/>
<path d="M155.563 69.4494L120.208 49.0387L84.8528 69.4494L120.208 89.86L155.563 69.4494Z" fill="#3D3D3D"/>
<path d="M296.985 -12.1932L261.63 -32.6038L226.274 -12.1932L261.63 8.21745L296.985 -12.1932Z" fill="#3D3D3D"/>
<path d="M226.274 28.6281L190.919 8.21745L155.563 28.6281L190.919 49.0387L226.274 28.6281Z" fill="#3D3D3D"/>
<path d="M367.696 -53.0145L332.34 -73.4251L296.985 -53.0145L332.34 -32.6038L367.696 -53.0145Z" fill="#3D3D3D"/>
<path d="M296.985 191.913L332.34 212.324L296.985 232.734L261.63 212.324L296.985 191.913Z" fill="#EEEEE9"/>
<path fill-rule="evenodd" clip-rule="evenodd" d="M304.056 -97.9179C300.151 -100.172 293.819 -100.172 289.914 -97.9179L7.07105 65.3672C3.16579 67.6217 3.16581 71.277 7.07105 73.5315L289.914 236.817C293.819 239.071 300.151 239.071 304.056 236.817L586.899 73.5315C590.804 71.277 590.804 67.6217 586.899 65.3672L304.056 -97.9179ZM509.117 28.6281L544.472 49.0387L579.828 69.4494L544.472 89.86L509.117 110.271L473.762 130.681L438.406 151.092L403.051 171.503L367.696 191.913L332.34 212.324L296.985 232.734L261.63 212.324L226.274 191.913L190.919 171.503L155.563 151.092L120.208 130.681L84.8528 110.271L49.4975 89.86L14.1421 69.4494L49.4975 49.0387L84.8528 28.6281L120.208 8.21745L155.563 -12.1932L190.919 -32.6038L226.274 -53.0145L261.63 -73.4251L296.985 -93.8357L332.34 -73.4251L367.696 -53.0145L403.051 -32.6038L438.406 -12.1932L473.762 8.21745L509.117 28.6281Z" fill="#3D3D3D"/>
</g>
</g>
<path d="M689.191 143.72C682.023 143.72 675.708 142.312 670.247 139.496C664.871 136.595 660.647 132.584 657.575 127.464C654.588 122.259 653.095 116.285 653.095 109.544C653.095 102.803 654.588 96.9147 657.575 91.88C660.647 86.8453 664.871 82.92 670.247 80.104C675.708 77.288 682.023 75.88 689.191 75.88C696.444 75.88 702.759 77.288 708.135 80.104C713.596 82.92 717.82 86.8453 720.807 91.88C723.794 96.9147 725.287 102.803 725.287 109.544C725.287 116.285 723.751 122.259 720.679 127.464C717.692 132.584 713.468 136.595 708.007 139.496C702.631 142.312 696.359 143.72 689.191 143.72ZM689.191 128.616C692.178 128.616 694.866 127.848 697.255 126.312C699.73 124.776 701.692 122.6 703.143 119.784C704.594 116.883 705.319 113.427 705.319 109.416C705.319 103.528 703.74 99.0053 700.583 95.848C697.511 92.6053 693.714 90.984 689.191 90.984C684.668 90.984 680.828 92.6053 677.671 95.848C674.599 99.0907 673.063 103.613 673.063 109.416C673.063 113.427 673.788 116.883 675.239 119.784C676.69 122.6 678.61 124.776 680.999 126.312C683.474 127.848 686.204 128.616 689.191 128.616Z" fill="black"/>
<path d="M608.215 142.44V77.16H627.031V92.52H627.415V142.44H608.215ZM627.415 108.392L625.751 92.904C627.287 87.3573 629.804 83.1333 633.303 80.232C636.802 77.3307 641.154 75.88 646.359 75.88C647.98 75.88 649.175 76.0507 649.943 76.392V94.312C649.516 94.1413 648.919 94.056 648.151 94.056C647.383 93.9707 646.444 93.928 645.335 93.928C639.191 93.928 634.668 95.0373 631.767 97.256C628.866 99.3893 627.415 103.101 627.415 108.392Z" fill="black"/>
<path d="M520.935 142.44V50.28H564.711C571.538 50.28 577.383 51.4747 582.247 53.864C587.196 56.2533 590.994 59.5813 593.639 63.848C596.37 68.1147 597.735 73.1067 597.735 78.824C597.735 84.5413 596.37 89.576 593.639 93.928C590.908 98.28 587.068 101.693 582.119 104.168C577.255 106.557 571.452 107.752 564.711 107.752H536.551V92.648H563.687C568.21 92.648 571.708 91.4107 574.183 88.936C576.743 86.376 578.023 83.048 578.023 78.952C578.023 74.856 576.743 71.5707 574.183 69.096C571.708 66.6213 568.21 65.384 563.687 65.384H540.647V142.44H520.935Z" fill="black"/>
<path d="M484.083 143.72C474.526 143.72 466.931 141.8 461.299 137.96C455.667 134.12 452.595 128.829 452.083 122.088H469.235C469.662 124.989 471.112 127.208 473.587 128.744C476.147 130.195 479.646 130.92 484.083 130.92C488.094 130.92 490.995 130.365 492.787 129.256C494.664 128.061 495.603 126.397 495.603 124.264C495.603 122.643 495.048 121.405 493.939 120.552C492.915 119.613 490.995 118.845 488.179 118.248L477.683 116.072C469.918 114.451 464.2 112.019 460.531 108.776C456.862 105.448 455.027 101.181 455.027 95.976C455.027 89.6613 457.459 84.7547 462.323 81.256C467.187 77.672 473.971 75.88 482.675 75.88C491.294 75.88 498.163 77.6293 503.283 81.128C508.403 84.5413 511.219 89.32 511.731 95.464H494.579C494.238 93.2453 493.043 91.5813 490.995 90.472C488.947 89.2773 486.046 88.68 482.291 88.68C478.878 88.68 476.318 89.192 474.611 90.216C472.99 91.1547 472.179 92.52 472.179 94.312C472.179 95.848 472.862 97.0853 474.227 98.024C475.592 98.8773 477.854 99.6453 481.011 100.328L492.787 102.76C499.358 104.125 504.307 106.685 507.635 110.44C511.048 114.109 512.755 118.461 512.755 123.496C512.755 129.896 510.238 134.888 505.203 138.472C500.254 141.971 493.214 143.72 484.083 143.72Z" fill="black"/>
<path d="M418.583 143.72C409.026 143.72 401.431 141.8 395.799 137.96C390.167 134.12 387.095 128.829 386.583 122.088H403.735C404.162 124.989 405.612 127.208 408.087 128.744C410.647 130.195 414.146 130.92 418.583 130.92C422.594 130.92 425.495 130.365 427.287 129.256C429.164 128.061 430.103 126.397 430.103 124.264C430.103 122.643 429.548 121.405 428.439 120.552C427.415 119.613 425.495 118.845 422.679 118.248L412.183 116.072C404.418 114.451 398.7 112.019 395.031 108.776C391.362 105.448 389.527 101.181 389.527 95.976C389.527 89.6613 391.959 84.7547 396.823 81.256C401.687 77.672 408.471 75.88 417.175 75.88C425.794 75.88 432.663 77.6293 437.783 81.128C442.903 84.5413 445.719 89.32 446.231 95.464H429.079C428.738 93.2453 427.543 91.5813 425.495 90.472C423.447 89.2773 420.546 88.68 416.791 88.68C413.378 88.68 410.818 89.192 409.111 90.216C407.49 91.1547 406.679 92.52 406.679 94.312C406.679 95.848 407.362 97.0853 408.727 98.024C410.092 98.8773 412.354 99.6453 415.511 100.328L427.287 102.76C433.858 104.125 438.807 106.685 442.135 110.44C445.548 114.109 447.255 118.461 447.255 123.496C447.255 129.896 444.738 134.888 439.703 138.472C434.754 141.971 427.714 143.72 418.583 143.72Z" fill="black"/>
<path d="M348.81 143.72C341.557 143.72 335.242 142.312 329.866 139.496C324.49 136.595 320.309 132.584 317.322 127.464C314.421 122.344 312.97 116.456 312.97 109.8C312.97 103.059 314.421 97.1707 317.322 92.136C320.309 87.016 324.447 83.048 329.738 80.232C335.029 77.3307 341.173 75.88 348.17 75.88C354.911 75.88 360.757 77.2453 365.706 79.976C370.655 82.7067 374.495 86.504 377.226 91.368C379.957 96.232 381.322 101.949 381.322 108.52C381.322 109.885 381.279 111.165 381.194 112.36C381.109 113.469 380.981 114.536 380.81 115.56H324.234V102.888H365.322L361.994 105.192C361.994 99.9013 360.714 96.0187 358.154 93.544C355.679 90.984 352.266 89.704 347.914 89.704C342.879 89.704 338.954 91.4107 336.138 94.824C333.407 98.2373 332.042 103.357 332.042 110.184C332.042 116.84 333.407 121.789 336.138 125.032C338.954 128.275 343.135 129.896 348.682 129.896C351.754 129.896 354.399 129.384 356.618 128.36C358.837 127.336 360.501 125.672 361.61 123.368H379.658C377.525 129.683 373.855 134.675 368.65 138.344C363.53 141.928 356.917 143.72 348.81 143.72Z" fill="black"/>
<path d="M238.84 142.44V50.28H258.04V142.44H238.84ZM284.28 142.44V101.992C284.28 98.408 283.341 95.72 281.464 93.928C279.672 92.136 277.027 91.24 273.528 91.24C270.541 91.24 267.853 91.9227 265.464 93.288C263.16 94.6533 261.325 96.5307 259.96 98.92C258.68 101.309 258.04 104.125 258.04 107.368L256.376 91.624C258.509 86.8453 261.624 83.048 265.72 80.232C269.901 77.3307 275.021 75.88 281.08 75.88C288.333 75.88 293.88 77.928 297.72 82.024C301.56 86.0347 303.48 91.4533 303.48 98.28V142.44H284.28Z" fill="black"/>
<path d="M185.208 143.72C178.552 143.72 172.408 142.568 166.776 140.264C161.144 137.875 156.237 134.547 152.056 130.28C147.96 126.013 144.76 120.979 142.456 115.176C140.152 109.288 139 102.888 139 95.976C139 89.064 140.109 82.7493 142.328 77.032C144.632 71.3147 147.832 66.3653 151.928 62.184C156.109 57.9173 161.016 54.6747 166.648 52.456C172.28 50.152 178.467 49 185.208 49C192.803 49 199.629 50.4933 205.688 53.48C211.832 56.3813 216.824 60.52 220.664 65.896C224.589 71.1867 226.979 77.416 227.832 84.584H208.632C207.523 78.0133 204.835 73.064 200.568 69.736C196.301 66.3227 191.224 64.616 185.336 64.616C180.131 64.616 175.523 65.8533 171.512 68.328C167.587 70.8027 164.515 74.3867 162.296 79.08C160.077 83.688 158.968 89.2773 158.968 95.848C158.968 102.504 160.077 108.264 162.296 113.128C164.6 117.907 167.757 121.619 171.768 124.264C175.779 126.824 180.387 128.104 185.592 128.104C191.139 128.104 196.045 126.44 200.312 123.112C204.579 119.784 207.352 114.835 208.632 108.264H228.088C226.979 115.432 224.461 121.704 220.536 127.08C216.611 132.371 211.619 136.467 205.56 139.368C199.501 142.269 192.717 143.72 185.208 143.72Z" fill="black"/>
<defs>
<filter id="filter0_d_0_1" x="1.07315" y="-49.0713" width="591.823" height="345.041" filterUnits="userSpaceOnUse" color-interpolation-filters="sRGB">
<feFlood flood-opacity="0" result="BackgroundImageFix"/>
<feColorMatrix in="SourceAlpha" type="matrix" values="0 0 0 0 0 0 0 0 0 0 0 0 0 0 0 0 0 0 127 0" result="hardAlpha"/>
<feOffset dy="4"/>
<feGaussianBlur stdDeviation="2"/>
<feComposite in2="hardAlpha" operator="out"/>
<feColorMatrix type="matrix" values="0 0 0 0 0 0 0 0 0 0 0 0 0 0 0 0 0 0 0.25 0"/>
<feBlend mode="normal" in2="BackgroundImageFix" result="effect1_dropShadow_0_1"/>
<feBlend mode="normal" in="SourceGraphic" in2="effect1_dropShadow_0_1" result="shape"/>
</filter>
<filter id="filter1_d_0_1" x="1.07315" y="-74.0713" width="591.823" height="345.041" filterUnits="userSpaceOnUse" color-interpolation-filters="sRGB">
<feFlood flood-opacity="0" result="BackgroundImageFix"/>
<feColorMatrix in="SourceAlpha" type="matrix" values="0 0 0 0 0 0 0 0 0 0 0 0 0 0 0 0 0 0 127 0" result="hardAlpha"/>
<feOffset dy="4"/>
<feGaussianBlur stdDeviation="2"/>
<feComposite in2="hardAlpha" operator="out"/>
<feColorMatrix type="matrix" values="0 0 0 0 0 0 0 0 0 0 0 0 0 0 0 0 0 0 0.25 0"/>
<feBlend mode="normal" in2="BackgroundImageFix" result="effect1_dropShadow_0_1"/>
<feBlend mode="normal" in="SourceGraphic" in2="effect1_dropShadow_0_1" result="shape"/>
</filter>
<filter id="filter2_d_0_1" x="0.14212" y="-99.6088" width="593.685" height="346.116" filterUnits="userSpaceOnUse" color-interpolation-filters="sRGB">
<feFlood flood-opacity="0" result="BackgroundImageFix"/>
<feColorMatrix in="SourceAlpha" type="matrix" values="0 0 0 0 0 0 0 0 0 0 0 0 0 0 0 0 0 0 127 0" result="hardAlpha"/>
<feOffset dy="4"/>
<feGaussianBlur stdDeviation="2"/>
<feComposite in2="hardAlpha" operator="out"/>
<feColorMatrix type="matrix" values="0 0 0 0 0 0 0 0 0 0 0 0 0 0 0 0 0 0 0.25 0"/>
<feBlend mode="normal" in2="BackgroundImageFix" result="effect1_dropShadow_0_1"/>
<feBlend mode="normal" in="SourceGraphic" in2="effect1_dropShadow_0_1" result="shape"/>
</filter>
</defs>
</svg>
