<svg width="725" height="193" viewBox="0 0 725 193" fill="none" xmlns="http://www.w3.org/2000/svg">
<path d="M689.191 144.72C682.023 144.72 675.708 143.312 670.247 140.496C664.871 137.595 660.647 133.584 657.575 128.464C654.588 123.259 653.095 117.285 653.095 110.544C653.095 103.803 654.588 97.9147 657.575 92.88C660.647 87.8453 664.871 83.92 670.247 81.104C675.708 78.288 682.023 76.88 689.191 76.88C696.444 76.88 702.759 78.288 708.135 81.104C713.596 83.92 717.82 87.8453 720.807 92.88C723.794 97.9147 725.287 103.803 725.287 110.544C725.287 117.285 723.751 123.259 720.679 128.464C717.692 133.584 713.468 137.595 708.007 140.496C702.631 143.312 696.359 144.72 689.191 144.72ZM689.191 129.616C692.178 129.616 694.866 128.848 697.255 127.312C699.73 125.776 701.692 123.6 703.143 120.784C704.594 117.883 705.319 114.427 705.319 110.416C705.319 104.528 703.74 100.005 700.583 96.848C697.511 93.6053 693.714 91.984 689.191 91.984C684.668 91.984 680.828 93.6053 677.671 96.848C674.599 100.091 673.063 104.613 673.063 110.416C673.063 114.427 673.788 117.883 675.239 120.784C676.69 123.6 678.61 125.776 680.999 127.312C683.474 128.848 686.204 129.616 689.191 129.616Z" fill="white"/>
<path d="M608.215 143.44V78.16H627.031V93.52H627.415V143.44H608.215ZM627.415 109.392L625.751 93.904C627.287 88.3573 629.804 84.1333 633.303 81.232C636.802 78.3307 641.154 76.88 646.359 76.88C647.98 76.88 649.175 77.0507 649.943 77.392V95.312C649.516 95.1413 648.919 95.056 648.151 95.056C647.383 94.9707 646.444 94.928 645.335 94.928C639.191 94.928 634.668 96.0373 631.767 98.256C628.866 100.389 627.415 104.101 627.415 109.392Z" fill="white"/>
<path d="M520.935 143.44V51.28H564.711C571.538 51.28 577.383 52.4747 582.247 54.864C587.196 57.2533 590.994 60.5813 593.639 64.848C596.37 69.1147 597.735 74.1067 597.735 79.824C597.735 85.5413 596.37 90.576 593.639 94.928C590.908 99.28 587.068 102.693 582.119 105.168C577.255 107.557 571.452 108.752 564.711 108.752H536.551V93.648H563.687C568.21 93.648 571.708 92.4107 574.183 89.936C576.743 87.376 578.023 84.048 578.023 79.952C578.023 75.856 576.743 72.5707 574.183 70.096C571.708 67.6213 568.21 66.384 563.687 66.384H540.647V143.44H520.935Z" fill="white"/>
<path d="M484.083 144.72C474.526 144.72 466.931 142.8 461.299 138.96C455.667 135.12 452.595 129.829 452.083 123.088H469.235C469.662 125.989 471.112 128.208 473.587 129.744C476.147 131.195 479.646 131.92 484.083 131.92C488.094 131.92 490.995 131.365 492.787 130.256C494.664 129.061 495.603 127.397 495.603 125.264C495.603 123.643 495.048 122.405 493.939 121.552C492.915 120.613 490.995 119.845 488.179 119.248L477.683 117.072C469.918 115.451 464.2 113.019 460.531 109.776C456.862 106.448 455.027 102.181 455.027 96.976C455.027 90.6613 457.459 85.7547 462.323 82.256C467.187 78.672 473.971 76.88 482.675 76.88C491.294 76.88 498.163 78.6293 503.283 82.128C508.403 85.5413 511.219 90.32 511.731 96.464H494.579C494.238 94.2453 493.043 92.5813 490.995 91.472C488.947 90.2773 486.046 89.68 482.291 89.68C478.878 89.68 476.318 90.192 474.611 91.216C472.99 92.1547 472.179 93.52 472.179 95.312C472.179 96.848 472.862 98.0853 474.227 99.024C475.592 99.8773 477.854 100.645 481.011 101.328L492.787 103.76C499.358 105.125 504.307 107.685 507.635 111.44C511.048 115.109 512.755 119.461 512.755 124.496C512.755 130.896 510.238 135.888 505.203 139.472C500.254 142.971 493.214 144.72 484.083 144.72Z" fill="white"/>
<path d="M418.583 144.72C409.026 144.72 401.431 142.8 395.799 138.96C390.167 135.12 387.095 129.829 386.583 123.088H403.735C404.162 125.989 405.612 128.208 408.087 129.744C410.647 131.195 414.146 131.92 418.583 131.92C422.594 131.92 425.495 131.365 427.287 130.256C429.164 129.061 430.103 127.397 430.103 125.264C430.103 123.643 429.548 122.405 428.439 121.552C427.415 120.613 425.495 119.845 422.679 119.248L412.183 117.072C404.418 115.451 398.7 113.019 395.031 109.776C391.362 106.448 389.527 102.181 389.527 96.976C389.527 90.6613 391.959 85.7547 396.823 82.256C401.687 78.672 408.471 76.88 417.175 76.88C425.794 76.88 432.663 78.6293 437.783 82.128C442.903 85.5413 445.719 90.32 446.231 96.464H429.079C428.738 94.2453 427.543 92.5813 425.495 91.472C423.447 90.2773 420.546 89.68 416.791 89.68C413.378 89.68 410.818 90.192 409.111 91.216C407.49 92.1547 406.679 93.52 406.679 95.312C406.679 96.848 407.362 98.0853 408.727 99.024C410.092 99.8773 412.354 100.645 415.511 101.328L427.287 103.76C433.858 105.125 438.807 107.685 442.135 111.44C445.548 115.109 447.255 119.461 447.255 124.496C447.255 130.896 444.738 135.888 439.703 139.472C434.754 142.971 427.714 144.72 418.583 144.72Z" fill="white"/>
<path d="M348.81 144.72C341.557 144.72 335.242 143.312 329.866 140.496C324.49 137.595 320.309 133.584 317.322 128.464C314.421 123.344 312.97 117.456 312.97 110.8C312.97 104.059 314.421 98.1707 317.322 93.136C320.309 88.016 324.447 84.048 329.738 81.232C335.029 78.3307 341.173 76.88 348.17 76.88C354.911 76.88 360.757 78.2453 365.706 80.976C370.655 83.7067 374.495 87.504 377.226 92.368C379.957 97.232 381.322 102.949 381.322 109.52C381.322 110.885 381.279 112.165 381.194 113.36C381.109 114.469 380.981 115.536 380.81 116.56H324.234V103.888H365.322L361.994 106.192C361.994 100.901 360.714 97.0187 358.154 94.544C355.679 91.984 352.266 90.704 347.914 90.704C342.879 90.704 338.954 92.4107 336.138 95.824C333.407 99.2373 332.042 104.357 332.042 111.184C332.042 117.84 333.407 122.789 336.138 126.032C338.954 129.275 343.135 130.896 348.682 130.896C351.754 130.896 354.399 130.384 356.618 129.36C358.837 128.336 360.501 126.672 361.61 124.368H379.658C377.525 130.683 373.855 135.675 368.65 139.344C363.53 142.928 356.917 144.72 348.81 144.72Z" fill="white"/>
<path d="M238.84 143.44V51.28H258.04V143.44H238.84ZM284.28 143.44V102.992C284.28 99.408 283.341 96.72 281.464 94.928C279.672 93.136 277.027 92.24 273.528 92.24C270.541 92.24 267.853 92.9227 265.464 94.288C263.16 95.6533 261.325 97.5307 259.96 99.92C258.68 102.309 258.04 105.125 258.04 108.368L256.376 92.624C258.509 87.8453 261.624 84.048 265.72 81.232C269.901 78.3307 275.021 76.88 281.08 76.88C288.333 76.88 293.88 78.928 297.72 83.024C301.56 87.0347 303.48 92.4533 303.48 99.28V143.44H284.28Z" fill="white"/>
<path d="M185.208 144.72C178.552 144.72 172.408 143.568 166.776 141.264C161.144 138.875 156.237 135.547 152.056 131.28C147.96 127.013 144.76 121.979 142.456 116.176C140.152 110.288 139 103.888 139 96.976C139 90.064 140.109 83.7493 142.328 78.032C144.632 72.3147 147.832 67.3653 151.928 63.184C156.109 58.9173 161.016 55.6747 166.648 53.456C172.28 51.152 178.467 50 185.208 50C192.803 50 199.629 51.4933 205.688 54.48C211.832 57.3813 216.824 61.52 220.664 66.896C224.589 72.1867 226.979 78.416 227.832 85.584H208.632C207.523 79.0133 204.835 74.064 200.568 70.736C196.301 67.3227 191.224 65.616 185.336 65.616C180.131 65.616 175.523 66.8533 171.512 69.328C167.587 71.8027 164.515 75.3867 162.296 80.08C160.077 84.688 158.968 90.2773 158.968 96.848C158.968 103.504 160.077 109.264 162.296 114.128C164.6 118.907 167.757 122.619 171.768 125.264C175.779 127.824 180.387 129.104 185.592 129.104C191.139 129.104 196.045 127.44 200.312 124.112C204.579 120.784 207.352 115.835 208.632 109.264H228.088C226.979 116.432 224.461 122.704 220.536 128.08C216.611 133.371 211.619 137.467 205.56 140.368C199.501 143.269 192.717 144.72 185.208 144.72Z" fill="white"/>
<mask id="mask0_13_2" style="mask-type:alpha" maskUnits="userSpaceOnUse" x="0" y="0" width="118" height="193">
<rect width="118" height="193" fill="#D9D9D9"/>
</mask>
<g mask="url(#mask0_13_2)">
<g filter="url(#filter0_d_13_2)">
<rect width="342.921" height="342.921" rx="10" transform="matrix(0.866044 0.499967 -0.866044 0.499967 296.985 -52)" fill="#B8B8B8"/>
</g>
<g filter="url(#filter1_d_13_2)">
<rect width="342.921" height="342.921" rx="10" transform="matrix(0.866044 0.499967 -0.866044 0.499967 296.985 -77)" fill="#5A5959"/>
</g>
<g filter="url(#filter2_d_13_2)">
<path d="M84.8528 69.4494L120.208 89.86L84.8528 110.271L49.4975 89.86L84.8528 69.4494Z" fill="#EEEEE9"/>
<path d="M226.274 -12.1932L261.63 8.21745L226.274 28.6281L190.919 8.21745L226.274 -12.1932Z" fill="#EEEEE9"/>
<path d="M155.563 28.6281L190.919 49.0387L155.563 69.4494L120.208 49.0387L155.563 28.6281Z" fill="#EEEEE9"/>
<path d="M296.985 -53.0145L332.34 -32.6038L296.985 -12.1932L261.63 -32.6038L296.985 -53.0145Z" fill="#EEEEE9"/>
<path d="M332.34 171.503L296.985 151.092L261.63 171.503L296.985 191.913L332.34 171.503Z" fill="#EEEEE9"/>
<path d="M473.762 89.86L438.406 69.4494L403.051 89.86L438.406 110.271L473.762 89.86Z" fill="#EEEEE9"/>
<path d="M403.051 130.681L367.696 110.271L332.34 130.681L367.696 151.092L403.051 130.681Z" fill="#EEEEE9"/>
<path d="M544.472 49.0387L509.117 28.6281L473.762 49.0387L509.117 69.4494L544.472 49.0387Z" fill="#EEEEE9"/>
<path d="M226.274 151.092L261.63 171.503L226.274 191.913L190.919 171.503L226.274 151.092Z" fill="#EEEEE9"/>
<path d="M367.696 69.4494L403.051 89.86L367.696 110.271L332.34 89.86L367.696 69.4494Z" fill="#EEEEE9"/>
<path d="M296.985 110.271L332.34 130.681L296.985 151.092L261.63 130.681L296.985 110.271Z" fill="#EEEEE9"/>
<path d="M438.406 28.6281L473.762 49.0387L438.406 69.4494L403.051 49.0387L438.406 28.6281Z" fill="#EEEEE9"/>
<path d="M190.919 89.86L155.563 69.4494L120.208 89.86L155.563 110.271L190.919 89.86Z" fill="#EEEEE9"/>
<path d="M332.34 8.21745L296.985 -12.1932L261.63 8.21745L296.985 28.6281L332.34 8.21745Z" fill="#EEEEE9"/>
<path d="M261.63 49.0387L226.274 28.6281L190.919 49.0387L226.274 69.4494L261.63 49.0387Z" fill="#EEEEE9"/>
<path d="M403.051 -32.6038L367.696 -53.0145L332.34 -32.6038L367.696 -12.1932L403.051 -32.6038Z" fill="#EEEEE9"/>
<path d="M49.4975 49.0387L84.8528 69.4494L49.4975 89.86L14.1421 69.4494L49.4975 49.0387Z" fill="#3D3D3D"/>
<path d="M190.919 -32.6038L226.274 -12.1932L190.919 8.21745L155.563 -12.1932L190.919 -32.6038Z" fill="#3D3D3D"/>
<path d="M120.208 8.21745L155.563 28.6281L120.208 49.0387L84.8528 28.6281L120.208 8.21745Z" fill="#3D3D3D"/>
<path d="M261.63 -73.4251L296.985 -53.0145L261.63 -32.6038L226.274 -53.0145L261.63 -73.4251Z" fill="#3D3D3D"/>
<path d="M367.696 191.913L332.34 171.503L296.985 191.913L332.34 212.324L367.696 191.913Z" fill="#3D3D3D"/>
<path d="M509.117 110.271L473.762 89.86L438.406 110.271L473.762 130.681L509.117 110.271Z" fill="#3D3D3D"/>
<path d="M438.406 151.092L403.051 130.681L367.696 151.092L403.051 171.503L438.406 151.092Z" fill="#3D3D3D"/>
<path d="M579.828 69.4494L544.472 49.0387L509.117 69.4494L544.472 89.86L579.828 69.4494Z" fill="#3D3D3D"/>
<path d="M190.919 130.681L226.274 151.092L190.919 171.503L155.563 151.092L190.919 130.681Z" fill="#3D3D3D"/>
<path d="M332.34 49.0387L367.696 69.4494L332.34 89.86L296.985 69.4494L332.34 49.0387Z" fill="#3D3D3D"/>
<path d="M261.63 89.86L296.985 110.271L261.63 130.681L226.274 110.271L261.63 89.86Z" fill="#3D3D3D"/>
<path d="M403.051 8.21745L438.406 28.6281L403.051 49.0387L367.696 28.6281L403.051 8.21745Z" fill="#3D3D3D"/>
<path d="M226.274 110.271L190.919 89.86L155.563 110.271L190.919 130.681L226.274 110.271Z" fill="#3D3D3D"/>
<path d="M367.696 28.6281L332.34 8.21745L296.985 28.6281L332.34 49.0387L367.696 28.6281Z" fill="#3D3D3D"/>
<path d="M296.985 69.4494L261.63 49.0387L226.274 69.4494L261.63 89.86L296.985 69.4494Z" fill="#3D3D3D"/>
<path d="M438.406 -12.1932L403.051 -32.6038L367.696 -12.1932L403.051 8.21745L438.406 -12.1932Z" fill="#3D3D3D"/>
<path d="M155.563 110.271L190.919 130.681L155.563 151.092L120.208 130.681L155.563 110.271Z" fill="#EEEEE9"/>
<path d="M296.985 28.6281L332.34 49.0387L296.985 69.4494L261.63 49.0387L296.985 28.6281Z" fill="#EEEEE9"/>
<path d="M226.274 69.4494L261.63 89.86L226.274 110.271L190.919 89.86L226.274 69.4494Z" fill="#EEEEE9"/>
<path d="M367.696 -12.1932L403.051 8.21745L367.696 28.6281L332.34 8.21745L367.696 -12.1932Z" fill="#EEEEE9"/>
<path d="M261.63 130.681L226.274 110.271L190.919 130.681L226.274 151.092L261.63 130.681Z" fill="#EEEEE9"/>
<path d="M403.051 49.0387L367.696 28.6281L332.34 49.0387L367.696 69.4494L403.051 49.0387Z" fill="#EEEEE9"/>
<path d="M332.34 89.86L296.985 69.4494L261.63 89.86L296.985 110.271L332.34 89.86Z" fill="#EEEEE9"/>
<path d="M473.762 8.21745L438.406 -12.1932L403.051 8.21745L438.406 28.6281L473.762 8.21745Z" fill="#EEEEE9"/>
<path d="M438.406 110.271L473.762 130.681L438.406 151.092L403.051 130.681L438.406 110.271Z" fill="#EEEEE9"/>
<path d="M367.696 151.092L403.051 171.503L367.696 191.913L332.34 171.503L367.696 151.092Z" fill="#EEEEE9"/>
<path d="M509.117 69.4494L544.472 89.86L509.117 110.271L473.762 89.86L509.117 69.4494Z" fill="#EEEEE9"/>
<path d="M120.208 49.0387L84.8528 28.6281L49.4975 49.0387L84.8528 69.4494L120.208 49.0387Z" fill="#EEEEE9"/>
<path d="M261.63 -32.6038L226.274 -53.0145L190.919 -32.6038L226.274 -12.1932L261.63 -32.6038Z" fill="#EEEEE9"/>
<path d="M190.919 8.21745L155.563 -12.1932L120.208 8.21745L155.563 28.6281L190.919 8.21745Z" fill="#EEEEE9"/>
<path d="M332.34 -73.4251L296.985 -93.8357L261.63 -73.4251L296.985 -53.0145L332.34 -73.4251Z" fill="#EEEEE9"/>
<path d="M120.208 89.86L155.563 110.271L120.208 130.681L84.8528 110.271L120.208 89.86Z" fill="#3D3D3D"/>
<path d="M261.63 8.21745L296.985 28.6281L261.63 49.0387L226.274 28.6281L261.63 8.21745Z" fill="#3D3D3D"/>
<path d="M190.919 49.0387L226.274 69.4494L190.919 89.86L155.563 69.4494L190.919 49.0387Z" fill="#3D3D3D"/>
<path d="M332.34 -32.6038L367.696 -12.1932L332.34 8.21745L296.985 -12.1932L332.34 -32.6038Z" fill="#3D3D3D"/>
<path d="M296.985 151.092L261.63 130.681L226.274 151.092L261.63 171.503L296.985 151.092Z" fill="#3D3D3D"/>
<path d="M438.406 69.4494L403.051 49.0387L367.696 69.4494L403.051 89.86L438.406 69.4494Z" fill="#3D3D3D"/>
<path d="M367.696 110.271L332.34 89.86L296.985 110.271L332.34 130.681L367.696 110.271Z" fill="#3D3D3D"/>
<path d="M509.117 28.6281L473.762 8.21745L438.406 28.6281L473.762 49.0387L509.117 28.6281Z" fill="#3D3D3D"/>
<path d="M261.63 171.503L296.985 191.913L261.63 212.324L226.274 191.913L261.63 171.503Z" fill="#3D3D3D"/>
<path d="M403.051 89.86L438.406 110.271L403.051 130.681L367.696 110.271L403.051 89.86Z" fill="#3D3D3D"/>
<path d="M332.34 130.681L367.696 151.092L332.34 171.503L296.985 151.092L332.34 130.681Z" fill="#3D3D3D"/>
<path d="M473.762 49.0387L509.117 69.4494L473.762 89.86L438.406 69.4494L473.762 49.0387Z" fill="#3D3D3D"/>
<path d="M155.563 69.4494L120.208 49.0387L84.8528 69.4494L120.208 89.86L155.563 69.4494Z" fill="#3D3D3D"/>
<path d="M296.985 -12.1932L261.63 -32.6038L226.274 -12.1932L261.63 8.21745L296.985 -12.1932Z" fill="#3D3D3D"/>
<path d="M226.274 28.6281L190.919 8.21745L155.563 28.6281L190.919 49.0387L226.274 28.6281Z" fill="#3D3D3D"/>
<path d="M367.696 -53.0145L332.34 -73.4251L296.985 -53.0145L332.34 -32.6038L367.696 -53.0145Z" fill="#3D3D3D"/>
<path d="M296.985 191.913L332.34 212.324L296.985 232.734L261.63 212.324L296.985 191.913Z" fill="#EEEEE9"/>
<path fill-rule="evenodd" clip-rule="evenodd" d="M304.056 -97.9179C300.151 -100.172 293.819 -100.172 289.914 -97.9179L7.07104 65.3672C3.16579 67.6217 3.1658 71.277 7.07105 73.5315L289.914 236.817C293.819 239.071 300.151 239.071 304.056 236.817L586.899 73.5315C590.804 71.277 590.804 67.6217 586.899 65.3672L304.056 -97.9179ZM509.117 28.6281L544.472 49.0387L579.828 69.4494L544.472 89.86L509.117 110.271L473.762 130.681L438.406 151.092L403.051 171.503L367.696 191.913L332.34 212.324L296.985 232.734L261.63 212.324L226.274 191.913L190.919 171.503L155.563 151.092L120.208 130.681L84.8528 110.271L49.4975 89.86L14.1421 69.4494L49.4975 49.0387L84.8528 28.6281L120.208 8.21745L155.563 -12.1932L190.919 -32.6038L226.274 -53.0145L261.63 -73.4251L296.985 -93.8357L332.34 -73.4251L367.696 -53.0145L403.051 -32.6038L438.406 -12.1932L473.762 8.21745L509.117 28.6281Z" fill="#3D3D3D"/>
</g>
</g>
<defs>
<filter id="filter0_d_13_2" x="1.07314" y="-49.0713" width="591.823" height="345.041" filterUnits="userSpaceOnUse" color-interpolation-filters="sRGB">
<feFlood flood-opacity="0" result="BackgroundImageFix"/>
<feColorMatrix in="SourceAlpha" type="matrix" values="0 0 0 0 0 0 0 0 0 0 0 0 0 0 0 0 0 0 127 0" result="hardAlpha"/>
<feOffset dy="4"/>
<feGaussianBlur stdDeviation="2"/>
<feComposite in2="hardAlpha" operator="out"/>
<feColorMatrix type="matrix" values="0 0 0 0 0 0 0 0 0 0 0 0 0 0 0 0 0 0 0.25 0"/>
<feBlend mode="normal" in2="BackgroundImageFix" result="effect1_dropShadow_13_2"/>
<feBlend mode="normal" in="SourceGraphic" in2="effect1_dropShadow_13_2" result="shape"/>
</filter>
<filter id="filter1_d_13_2" x="1.07314" y="-74.0713" width="591.823" height="345.041" filterUnits="userSpaceOnUse" color-interpolation-filters="sRGB">
<feFlood flood-opacity="0" result="BackgroundImageFix"/>
<feColorMatrix in="SourceAlpha" type="matrix" values="0 0 0 0 0 0 0 0 0 0 0 0 0 0 0 0 0 0 127 0" result="hardAlpha"/>
<feOffset dy="4"/>
<feGaussianBlur stdDeviation="2"/>
<feComposite in2="hardAlpha" operator="out"/>
<feColorMatrix type="matrix" values="0 0 0 0 0 0 0 0 0 0 0 0 0 0 0 0 0 0 0.25 0"/>
<feBlend mode="normal" in2="BackgroundImageFix" result="effect1_dropShadow_13_2"/>
<feBlend mode="normal" in="SourceGraphic" in2="effect1_dropShadow_13_2" result="shape"/>
</filter>
<filter id="filter2_d_13_2" x="0.142108" y="-99.6087" width="593.686" height="346.116" filterUnits="userSpaceOnUse" color-interpolation-filters="sRGB">
<feFlood flood-opacity="0" result="BackgroundImageFix"/>
<feColorMatrix in="SourceAlpha" type="matrix" values="0 0 0 0 0 0 0 0 0 0 0 0 0 0 0 0 0 0 127 0" result="hardAlpha"/>
<feOffset dy="4"/>
<feGaussianBlur stdDeviation="2"/>
<feComposite in2="hardAlpha" operator="out"/>
<feColorMatrix type="matrix" values="0 0 0 0 0 0 0 0 0 0 0 0 0 0 0 0 0 0 0.25 0"/>
<feBlend mode="normal" in2="BackgroundImageFix" result="effect1_dropShadow_13_2"/>
<feBlend mode="normal" in="SourceGraphic" in2="effect1_dropShadow_13_2" result="shape"/>
</filter>
</defs>
</svg>
