<svg version="1.1" id="Layer_1" xmlns="http://www.w3.org/2000/svg" xmlns:xlink="http://www.w3.org/1999/xlink" x="0px" y="0px"
	 width="100%" viewBox="0 0 420 420" enable-background="new 0 0 420 420" xml:space="preserve">
<path fill="#3D3D3D" opacity="1.000000" stroke="none" 
	d="
M421.000000,152.000000 
	C421.000000,241.999985 421.000000,331.499969 421.000000,421.000000 
	C281.000031,421.000000 141.000061,421.000000 1.000062,421.000000 
	C1.000041,281.000031 1.000041,141.000092 1.000021,1.000099 
	C140.999939,1.000066 280.999878,1.000066 420.999908,1.000033 
	C421.000000,51.166668 421.000000,101.333336 421.000000,152.000000 
M110.107681,61.007069 
	C93.720016,61.020981 77.332352,61.034889 60.992802,60.106457 
	C60.992802,43.847973 60.992802,27.589487 60.992802,11.302023 
	C44.056351,11.302023 27.671873,11.302023 11.325342,11.302023 
	C11.325342,27.991016 11.325342,44.375866 11.325342,60.945484 
	C28.115883,60.945484 44.581959,60.945484 61.006317,61.889187 
	C61.020962,78.277557 61.035610,94.665932 60.107693,111.007065 
	C43.843136,111.007065 27.578577,111.007065 11.319193,111.007065 
	C11.319193,127.966667 11.319193,144.357224 11.319193,160.953247 
	C28.110239,160.953247 44.583126,160.953247 61.004601,161.894852 
	C61.014336,177.539154 61.024071,193.183441 61.056698,209.595047 
	C61.010593,210.104614 60.964489,210.614197 59.996971,211.016037 
	C43.751926,211.016037 27.506878,211.016037 11.330971,211.016037 
	C11.330971,228.008972 11.330971,244.390732 11.330971,260.945831 
	C28.124159,260.945831 44.587166,260.945831 61.006554,261.889404 
	C61.022484,278.276337 61.038418,294.663269 60.110771,311.006531 
	C43.846111,311.006531 27.581450,311.006531 11.317541,311.006531 
	C11.317541,327.963684 11.317541,344.354034 11.317541,360.945709 
	C28.106096,360.945709 44.578171,360.945709 61.006557,361.889313 
	C61.006557,378.154266 61.006557,394.419220 61.006557,410.681549 
	C77.964935,410.681549 94.355591,410.681549 110.949722,410.681549 
	C110.949722,393.891327 110.949722,377.418549 111.892303,360.992950 
	C128.278275,360.977203 144.664246,360.961426 161.006561,361.889282 
	C161.006561,378.154236 161.006561,394.419189 161.006561,410.681519 
	C177.964951,410.681519 194.355606,410.681519 210.949738,410.681519 
	C210.949738,393.891327 210.949738,377.418549 211.892303,360.992920 
	C228.278290,360.977173 244.664276,360.961456 261.006531,361.889343 
	C261.006531,378.154297 261.006531,394.419250 261.006531,410.681549 
	C277.964966,410.681549 294.355621,410.681549 310.949738,410.681549 
	C310.949738,393.891327 310.949738,377.418549 311.892303,360.992920 
	C328.277557,360.977051 344.662811,360.961182 361.006317,361.889069 
	C361.006317,378.148651 361.006317,394.408234 361.006317,410.697540 
	C377.943176,410.697540 394.328308,410.697540 410.673218,410.697540 
	C410.673218,394.007385 410.673218,377.621857 410.673218,361.048645 
	C393.879791,361.048645 377.412262,361.048645 360.992798,360.106323 
	C360.978424,343.719482 360.964081,327.332611 361.892303,310.992920 
	C378.157257,310.992920 394.422241,310.992920 410.679626,310.992920 
	C410.679626,294.031708 410.679626,277.640747 410.679626,261.035889 
	C393.886383,261.035889 377.412476,261.035889 360.998047,260.097076 
	C360.988190,247.785309 360.978363,235.473557 360.928650,222.216568 
	C360.979462,218.436646 361.030273,214.656738 362.002594,210.984039 
	C378.248016,210.984039 394.493469,210.984039 410.668152,210.984039 
	C410.668152,193.989944 410.668152,177.607834 410.668152,161.050171 
	C393.873322,161.050171 377.409515,161.050171 360.992889,160.107620 
	C360.977142,143.721664 360.961395,127.335716 361.889282,110.993439 
	C378.153931,110.993439 394.418579,110.993439 410.682434,110.993439 
	C410.682434,94.036285 410.682434,77.645943 410.682434,61.054348 
	C393.893890,61.054348 377.421844,61.054348 360.993469,60.110771 
	C360.993469,43.845798 360.993469,27.580830 360.993469,11.318457 
	C344.035065,11.318457 327.644409,11.318457 311.050232,11.318457 
	C311.050232,28.108700 311.050232,44.581505 310.107666,61.007065 
	C293.721710,61.022827 277.335754,61.038586 260.993469,60.110771 
	C260.993469,43.845810 260.993469,27.580847 260.993469,11.318460 
	C244.035065,11.318460 227.644409,11.318460 211.050247,11.318460 
	C211.050247,28.108673 211.050247,44.581486 210.107697,61.007069 
	C193.721725,61.022823 177.335754,61.038578 160.993439,60.110764 
	C160.993439,43.845798 160.993439,27.580832 160.993439,11.318460 
	C144.035049,11.318460 127.644386,11.318460 111.050255,11.318460 
	C111.050255,28.108658 111.050255,44.581478 110.107681,61.007069 
z"/>
<path fill="#010101" opacity="1.000000" stroke="none" 
	d="
M361.081055,210.876816 
	C361.030273,214.656738 360.979462,218.436646 360.609100,222.794128 
	C358.949036,224.508194 357.608551,225.644699 355.994934,227.012726 
	C355.994934,233.543320 355.686554,240.532425 356.087952,247.480499 
	C356.438660,253.550858 354.457001,257.992249 348.701569,260.913330 
	C335.773682,260.933044 323.324646,261.006317 310.416016,261.043213 
	C296.999878,260.910767 284.043274,260.814636 271.018799,260.388794 
	C267.200043,256.996704 265.714966,253.103149 265.935394,248.230698 
	C266.206024,242.249084 265.835236,236.239685 266.061066,230.254349 
	C266.196808,226.656113 264.809570,224.963730 261.216064,224.456573 
	C261.073639,219.709961 260.996460,215.417587 260.961487,210.743134 
	C261.013885,209.850143 261.024078,209.339203 261.373108,208.722183 
	C263.049835,207.484528 264.387756,206.352936 265.997345,204.991577 
	C265.997345,201.282761 265.985229,197.140320 265.999908,192.998001 
	C266.029388,184.670929 269.710205,181.015656 278.107727,181.000961 
	C287.345337,180.984772 296.583008,180.997253 306.874634,180.997253 
	C305.845276,177.534363 305.208527,174.764191 304.198639,172.137451 
	C302.549103,167.846848 304.136322,164.198944 309.222961,162.011932 
	C310.028809,161.723892 310.513275,161.367294 311.389526,161.032593 
	C312.824097,161.129150 313.866913,161.203827 314.940002,161.621765 
	C318.367889,165.742188 319.884766,169.557648 316.546783,174.410950 
	C315.554352,175.853928 316.211456,178.431442 316.088287,180.998734 
	C326.183929,180.998734 335.615997,180.941391 345.047028,181.017853 
	C351.917297,181.073547 355.846710,184.995667 355.988892,191.788940 
	C356.058350,195.108429 356.197205,198.445114 355.950623,201.747574 
	C355.679749,205.375839 357.265503,206.973190 360.782959,207.464844 
	C360.924347,208.852539 361.002716,209.864685 361.081055,210.876816 
M293.701843,231.000549 
	C287.760834,233.023117 292.626373,237.527283 290.790283,240.759506 
	C304.541809,240.759506 317.597046,240.759506 330.752563,240.759506 
	C330.752563,237.455154 330.752563,234.391708 330.752563,230.999664 
	C318.561981,230.999664 306.616547,230.999664 293.701843,231.000549 
M335.798798,208.147614 
	C333.340118,202.252121 330.270020,199.949997 326.624969,201.268600 
	C322.782471,202.658630 320.137634,208.520157 321.132538,213.440918 
	C322.030243,217.880737 325.598755,221.300522 329.009094,220.989212 
	C332.805969,220.642624 335.802795,216.346436 335.999451,210.941406 
	C336.023438,210.282196 335.959473,209.619781 335.798798,208.147614 
M285.997925,211.414810 
	C286.909821,217.698181 289.923706,221.323700 293.958099,220.990433 
	C297.631073,220.687027 300.838043,216.359390 300.999054,211.489014 
	C301.174896,206.171722 297.916351,201.329483 293.947815,201.010635 
	C289.900665,200.685455 286.889832,204.313889 285.997925,211.414810 
z"/>
<path fill="#010101" opacity="1.000000" stroke="none" 
	d="
M60.918388,211.123764 
	C60.964489,210.614197 61.010593,210.104614 61.384178,209.105728 
	C63.049587,207.484756 64.387512,206.353104 65.997330,204.991486 
	C65.997330,201.282791 65.985184,197.140244 65.999886,192.997787 
	C66.029449,184.670303 69.710045,181.015625 78.108612,181.000946 
	C87.346436,180.984787 96.584312,180.997253 106.875778,180.997253 
	C105.846527,177.537064 105.208092,174.764877 104.197639,172.135681 
	C102.548546,167.844742 104.137733,164.196060 109.225052,162.011322 
	C110.030190,161.723587 110.514214,161.367279 111.389954,161.032745 
	C112.824272,161.129166 113.866890,161.203827 114.939880,161.621765 
	C118.368073,165.742142 119.884628,169.557663 116.546837,174.410950 
	C115.554413,175.853973 116.211494,178.431427 116.088326,180.998734 
	C126.183929,180.998734 135.616013,180.941391 145.047043,181.017853 
	C151.917297,181.073563 155.846695,184.995682 155.988907,191.788956 
	C156.058380,195.108444 156.197189,198.445114 155.950638,201.747574 
	C155.679764,205.375824 157.265488,206.973190 160.782944,207.464813 
	C160.924301,208.852448 161.002625,209.864548 161.052612,211.346863 
	C161.005692,215.598602 160.987076,219.380142 160.628967,223.266693 
	C158.949036,224.508163 157.608612,225.644638 155.994904,227.012787 
	C155.994904,233.542938 155.686142,240.531754 156.088013,247.479477 
	C156.439240,253.551590 154.456604,257.992126 148.698059,260.910339 
	C135.772018,260.931458 123.323822,261.005524 110.416046,261.043274 
	C96.999863,260.910797 84.043266,260.814667 71.018761,260.388855 
	C67.200012,256.996735 65.714966,253.103088 65.935326,248.230728 
	C66.205856,242.249100 65.835068,236.239700 66.060997,230.254364 
	C66.196823,226.655991 64.809502,224.963821 61.216057,224.456482 
	C61.073364,219.709366 60.995876,215.416565 60.918388,211.123764 
M103.511612,240.995865 
	C112.597946,240.995865 121.684280,240.995865 130.699432,240.995865 
	C130.699432,237.349731 130.699432,234.283936 130.699432,231.288040 
	C117.342896,231.288040 104.289093,231.288040 91.304100,231.288040 
	C91.304100,234.649170 91.304100,237.714920 91.304100,240.995865 
	C95.240799,240.995865 98.879448,240.995865 103.511612,240.995865 
M100.497658,207.404541 
	C99.197105,204.015076 97.189873,200.270798 93.343315,201.303238 
	C90.612862,202.036102 88.468857,205.427338 86.408813,207.917984 
	C85.722549,208.747681 85.975151,210.470123 86.028839,211.774963 
	C86.229156,216.643250 89.635864,220.885056 93.330414,220.997284 
	C97.063377,221.110703 100.614975,217.033630 100.964340,212.112045 
	C101.057175,210.804245 100.862274,209.476013 100.497658,207.404541 
M128.505997,221.002884 
	C133.041458,220.491028 134.982635,217.242096 135.795334,213.395615 
	C136.699921,209.114075 135.631638,205.121994 132.027115,202.273331 
	C129.213181,200.049454 126.495117,200.692383 124.053230,203.079086 
	C118.558609,208.449509 120.436050,217.574066 128.505997,221.002884 
z"/>
<path fill="#EEEEE9" opacity="1.000000" stroke="none" 
	d="
M60.457680,211.069901 
	C60.995876,215.416565 61.073364,219.709366 61.094337,224.917023 
	C61.008175,237.571671 60.978523,249.311432 60.974335,261.025024 
	C60.999794,260.998810 61.050175,260.945831 61.050175,260.945831 
	C44.587166,260.945831 28.124159,260.945831 11.330971,260.945831 
	C11.330971,244.390732 11.330971,228.008972 11.330971,211.016037 
	C27.506878,211.016037 43.751926,211.016037 60.457680,211.069901 
z"/>
<path fill="#EEEEE9" opacity="1.000000" stroke="none" 
	d="
M61.048035,60.945484 
	C44.581959,60.945484 28.115883,60.945484 11.325342,60.945484 
	C11.325342,44.375866 11.325342,27.991016 11.325342,11.302023 
	C27.671873,11.302023 44.056351,11.302023 60.992802,11.302023 
	C60.992802,27.589487 60.992802,43.847973 60.995201,60.552422 
	C60.997601,60.998383 61.048035,60.945484 61.048035,60.945484 
z"/>
<path fill="#EEEEE9" opacity="1.000000" stroke="none" 
	d="
M71.086678,260.718536 
	C84.043266,260.814667 96.999863,260.910797 110.470169,261.504028 
	C110.972229,278.351135 110.960564,294.701111 110.974449,311.025574 
	C111.000000,311.000000 111.051102,310.948883 110.579636,310.971130 
	C93.721741,310.978546 77.335320,310.963715 60.975128,310.974365 
	C61.001350,310.999817 61.054348,311.050201 61.054348,311.050201 
	C61.038418,294.663269 61.022484,278.276337 61.028366,261.417603 
	C61.050175,260.945831 60.999794,260.998810 61.434582,261.002014 
	C64.941803,260.909698 68.014244,260.814117 71.086678,260.718536 
z"/>
<path fill="#EEEEE9" opacity="1.000000" stroke="none" 
	d="
M360.938568,261.035889 
	C377.412476,261.035889 393.886383,261.035889 410.679626,261.035889 
	C410.679626,277.640747 410.679626,294.031708 410.679626,310.992920 
	C394.422241,310.992920 378.157257,310.992920 361.446228,310.995819 
	C361.000122,310.998718 361.051117,311.051117 361.028870,310.579651 
	C361.021637,293.722351 361.036621,277.336487 361.019531,260.966888 
	C360.987427,260.983124 360.938568,261.035889 360.938568,261.035889 
z"/>
<path fill="#EEEEE9" opacity="1.000000" stroke="none" 
	d="
M61.050243,360.945709 
	C44.578171,360.945709 28.106096,360.945709 11.317541,360.945709 
	C11.317541,344.354034 11.317541,327.963684 11.317541,311.006531 
	C27.581450,311.006531 43.846111,311.006531 60.582558,311.028381 
	C61.054348,311.050201 61.001350,310.999817 60.997345,311.445801 
	C60.978527,328.278259 60.963711,344.664673 60.974373,361.024902 
	C60.999851,360.998688 61.050243,360.945709 61.050243,360.945709 
z"/>
<path fill="#EEEEE9" opacity="1.000000" stroke="none" 
	d="
M161.050217,360.945679 
	C144.664246,360.961426 128.278275,360.977203 111.446213,360.995850 
	C111.000114,360.998718 111.051102,361.051117 111.028877,360.579681 
	C111.021469,343.721802 111.036285,327.335327 111.051102,310.948883 
	C111.051102,310.948883 111.000000,311.000000 111.445923,311.003326 
	C128.277969,310.986328 144.664093,310.966003 161.028397,311.417480 
	C160.987350,328.276550 160.968124,344.663849 160.974365,361.024902 
	C160.999832,360.998688 161.050217,360.945679 161.050217,360.945679 
z"/>
<path fill="#EEEEE9" opacity="1.000000" stroke="none" 
	d="
M261.050262,360.945740 
	C244.664276,360.961456 228.278290,360.977173 211.446228,360.995789 
	C211.000137,360.998688 211.051102,361.051117 211.028870,360.579681 
	C210.986313,343.722107 210.965988,327.335938 211.417419,310.971619 
	C228.276505,311.012695 244.663818,311.031891 261.025574,311.025574 
	C261.000000,311.000000 260.948883,310.948883 260.971130,311.420319 
	C260.978516,328.278198 260.963684,344.664673 260.974365,361.024902 
	C260.999878,360.998688 261.050262,360.945740 261.050262,360.945740 
z"/>
<path fill="#EEEEE9" opacity="1.000000" stroke="none" 
	d="
M360.974915,310.972229 
	C360.964081,327.332611 360.978424,343.719482 360.995178,360.552246 
	C360.997589,360.998199 361.048065,360.945343 361.048065,360.945343 
	C344.662811,360.961182 328.277557,360.977051 311.446228,360.995819 
	C311.000122,360.998718 311.051117,361.051117 311.028870,360.579651 
	C311.021484,343.721741 311.036316,327.335327 311.025574,310.974426 
	C311.000000,311.000000 310.948883,311.051117 311.420319,311.028870 
	C328.278198,311.021484 344.664673,311.036316 361.051117,311.051117 
	C361.051117,311.051117 361.000122,310.998718 360.974915,310.972229 
z"/>
<path fill="#EEEEE9" opacity="1.000000" stroke="none" 
	d="
M110.974915,360.972229 
	C110.949722,377.418549 110.949722,393.891327 110.949722,410.681549 
	C94.355591,410.681549 77.964935,410.681549 61.006557,410.681549 
	C61.006557,394.419220 61.006557,378.154266 61.028400,361.417511 
	C61.050243,360.945709 60.999851,360.998688 61.445843,361.002686 
	C78.278259,361.021484 94.664680,361.036316 111.051102,361.051117 
	C111.051102,361.051117 111.000114,360.998718 110.974915,360.972229 
z"/>
<path fill="#EEEEE9" opacity="1.000000" stroke="none" 
	d="
M210.974945,360.972229 
	C210.949738,377.418549 210.949738,393.891327 210.949738,410.681519 
	C194.355606,410.681519 177.964951,410.681519 161.006561,410.681519 
	C161.006561,394.419189 161.006561,378.154236 161.028381,361.417480 
	C161.050217,360.945679 160.999832,360.998688 161.445831,361.002686 
	C178.278244,361.021484 194.664673,361.036285 211.051102,361.051117 
	C211.051102,361.051117 211.000137,360.998688 210.974945,360.972229 
z"/>
<path fill="#EEEEE9" opacity="1.000000" stroke="none" 
	d="
M310.974915,360.972229 
	C310.949738,377.418549 310.949738,393.891327 310.949738,410.681549 
	C294.355621,410.681549 277.964966,410.681549 261.006531,410.681549 
	C261.006531,394.419250 261.006531,378.154297 261.028381,361.417542 
	C261.050262,360.945740 260.999878,360.998688 261.445862,361.002686 
	C278.278259,361.021484 294.664673,361.036285 311.051117,361.051117 
	C311.051117,361.051117 311.000122,360.998718 310.974915,360.972229 
z"/>
<path fill="#EEEEE9" opacity="1.000000" stroke="none" 
	d="
M360.971161,361.023438 
	C377.412262,361.048645 393.879791,361.048645 410.673218,361.048645 
	C410.673218,377.621857 410.673218,394.007385 410.673218,410.697540 
	C394.328308,410.697540 377.943176,410.697540 361.006317,410.697540 
	C361.006317,394.408234 361.006317,378.148651 361.027191,361.417206 
	C361.048065,360.945343 360.997589,360.998199 360.971161,361.023438 
z"/>
<path fill="#EEEEE9" opacity="1.000000" stroke="none" 
	d="
M260.949799,61.054344 
	C277.335754,61.038586 293.721710,61.022827 310.553772,61.004196 
	C310.999847,61.001328 310.948883,60.948898 310.971130,61.420326 
	C310.978516,78.278206 310.963715,94.664650 310.974426,111.025551 
	C311.000000,111.000000 311.051117,110.948898 310.579681,110.971085 
	C293.722168,111.013680 277.336060,111.034096 260.971741,110.582703 
	C261.012695,93.723564 261.031921,77.336235 261.025635,60.975128 
	C261.000183,61.001350 260.949799,61.054348 260.949799,61.054344 
z"/>
<path fill="#EEEEE9" opacity="1.000000" stroke="none" 
	d="
M314.909698,161.278503 
	C313.866913,161.203827 312.824097,161.129150 311.390564,160.563232 
	C311.016937,143.697632 311.034027,127.323265 311.051117,110.948898 
	C311.051117,110.948898 311.000000,111.000000 311.445923,111.003326 
	C328.278259,111.021469 344.664673,111.036285 361.024902,111.025635 
	C360.998688,111.000160 360.945679,110.949768 360.945679,110.949768 
	C360.961395,127.335716 360.977142,143.721664 360.995819,160.553711 
	C360.998749,160.999802 361.051147,160.948868 360.579742,160.971527 
	C345.042114,161.088943 329.975922,161.183716 314.909698,161.278503 
z"/>
<path fill="#EEEEE9" opacity="1.000000" stroke="none" 
	d="
M61.056015,160.953247 
	C44.583126,160.953247 28.110239,160.953247 11.319193,160.953247 
	C11.319193,144.357224 11.319193,127.966667 11.319193,111.007065 
	C27.578577,111.007065 43.843136,111.007065 60.553787,111.004189 
	C60.999886,111.001312 60.948902,110.948898 60.971077,111.420364 
	C60.978386,128.278000 60.963524,144.664154 60.977482,161.028229 
	C61.006302,161.006149 61.056015,160.953247 61.056015,160.953247 
z"/>
<path fill="#EEEEE9" opacity="1.000000" stroke="none" 
	d="
M360.949799,61.054348 
	C377.421844,61.054348 393.893890,61.054348 410.682434,61.054348 
	C410.682434,77.645943 410.682434,94.036285 410.682434,110.993439 
	C394.418579,110.993439 378.153931,110.993439 361.417480,110.971603 
	C360.945679,110.949768 360.998688,111.000160 361.002686,110.554161 
	C361.021454,93.721741 361.036285,77.335320 361.025635,60.975128 
	C361.000183,61.001350 360.949799,61.054348 360.949799,61.054348 
z"/>
<path fill="#EEEEE9" opacity="1.000000" stroke="none" 
	d="
M160.949783,61.054337 
	C177.335754,61.038578 193.721725,61.022823 210.553772,61.004192 
	C210.999863,61.001316 210.948883,60.948898 210.971100,61.420326 
	C211.013657,78.277916 211.033966,94.664078 210.582520,111.028397 
	C193.723465,110.987343 177.336166,110.968124 160.974442,110.974449 
	C161.000000,111.000000 161.051117,111.051102 161.028900,110.579666 
	C161.021484,93.721794 161.036301,77.335350 161.025650,60.975121 
	C161.000168,61.001343 160.949783,61.054337 160.949783,61.054337 
z"/>
<path fill="#EEEEE9" opacity="1.000000" stroke="none" 
	d="
M60.971146,61.023590 
	C77.332352,61.034889 93.720016,61.020981 110.553772,61.004192 
	C110.999870,61.001316 110.948898,60.948898 110.971123,61.420364 
	C110.978531,78.278252 110.963707,94.664673 110.974365,111.024887 
	C110.999840,110.998665 111.050217,110.945679 110.578934,110.969269 
	C93.721397,110.978203 77.335152,110.963554 60.948902,110.948898 
	C60.948902,110.948898 60.999886,111.001312 61.025070,111.027809 
	C61.035610,94.665932 61.020962,78.277557 61.027176,61.417336 
	C61.048035,60.945484 60.997601,60.998383 60.971146,61.023590 
z"/>
<path fill="#EEEEE9" opacity="1.000000" stroke="none" 
	d="
M361.541809,210.930420 
	C361.002716,209.864685 360.924347,208.852539 360.904633,207.004288 
	C360.992554,191.095062 361.021851,176.021973 361.051147,160.948868 
	C361.051147,160.948868 360.998749,160.999802 360.972229,161.024994 
	C377.409515,161.050171 393.873322,161.050171 410.668152,161.050171 
	C410.668152,177.607834 410.668152,193.989944 410.668152,210.984039 
	C394.493469,210.984039 378.248016,210.984039 361.541809,210.930420 
z"/>
<path fill="#EEEEE9" opacity="1.000000" stroke="none" 
	d="
M311.025024,61.027821 
	C311.050232,44.581505 311.050232,28.108700 311.050232,11.318457 
	C327.644409,11.318457 344.035065,11.318457 360.993469,11.318457 
	C360.993469,27.580830 360.993469,43.845798 360.971619,60.582558 
	C360.949799,61.054348 361.000183,61.001350 360.554199,60.997345 
	C343.721741,60.978527 327.335327,60.963715 310.948883,60.948898 
	C310.948883,60.948898 310.999847,61.001328 311.025024,61.027821 
z"/>
<path fill="#EEEEE9" opacity="1.000000" stroke="none" 
	d="
M211.025055,61.027809 
	C211.050247,44.581486 211.050247,28.108673 211.050247,11.318460 
	C227.644409,11.318460 244.035065,11.318460 260.993469,11.318460 
	C260.993469,27.580847 260.993469,43.845810 260.971619,60.582558 
	C260.949799,61.054348 261.000183,61.001350 260.554199,60.997345 
	C243.721756,60.978527 227.335312,60.963711 210.948883,60.948898 
	C210.948883,60.948898 210.999863,61.001316 211.025055,61.027809 
z"/>
<path fill="#EEEEE9" opacity="1.000000" stroke="none" 
	d="
M111.025063,61.027809 
	C111.050255,44.581478 111.050255,28.108658 111.050255,11.318460 
	C127.644386,11.318460 144.035049,11.318460 160.993439,11.318460 
	C160.993439,27.580832 160.993439,43.845798 160.971619,60.582550 
	C160.949783,61.054337 161.000168,61.001343 160.554169,60.997345 
	C143.721756,60.978527 127.335327,60.963715 110.948898,60.948898 
	C110.948898,60.948898 110.999870,61.001316 111.025063,61.027809 
z"/>
<path fill="#EDEDE8" opacity="1.000000" stroke="none" 
	d="
M108.903946,161.942749 
	C104.137733,164.196060 102.548546,167.844742 104.197639,172.135681 
	C105.208092,174.764877 105.846527,177.537064 106.875778,180.997253 
	C96.584312,180.997253 87.346436,180.984787 78.108612,181.000946 
	C69.710045,181.015625 66.029449,184.670303 65.999886,192.997787 
	C65.985184,197.140244 65.997330,201.282791 65.997330,204.991486 
	C64.387512,206.353104 63.049587,207.484756 61.372734,208.722076 
	C61.024071,193.183441 61.014336,177.539154 61.030308,161.424042 
	C61.056015,160.953247 61.006302,161.006149 61.448929,161.005096 
	C76.044136,161.002380 90.196861,160.972153 104.349113,161.040421 
	C105.868805,161.047745 107.385735,161.628174 108.903946,161.942749 
z"/>
<path fill="#ECECE7" opacity="1.000000" stroke="none" 
	d="
M349.180420,260.966888 
	C354.457001,257.992249 356.438660,253.550858 356.087952,247.480499 
	C355.686554,240.532425 355.994934,233.543320 355.994934,227.012726 
	C357.608551,225.644699 358.949036,224.508194 360.629028,223.266754 
	C360.978363,235.473557 360.988190,247.785309 360.968323,260.566467 
	C360.938568,261.035889 360.987427,260.983124 360.558441,260.991211 
	C356.479767,260.988464 352.830109,260.977692 349.180420,260.966888 
z"/>
<path fill="#3D3D3D" opacity="1.000000" stroke="none" 
	d="
M310.579681,110.971085 
	C311.034027,127.323265 311.016937,143.697632 310.998779,160.541351 
	C310.513275,161.367294 310.028809,161.723892 309.010559,161.644974 
	C292.634155,161.122650 276.791534,161.035828 260.974548,160.974472 
	C261.000122,160.999939 261.051086,161.051117 261.028809,160.579666 
	C261.021393,143.721771 261.036224,127.335335 261.025757,110.975220 
	C261.000397,111.001541 260.949982,111.054504 260.949982,111.054504 
	C277.336060,111.034096 293.722168,111.013680 310.579681,110.971085 
z"/>
<path fill="#EEEEE9" opacity="1.000000" stroke="none" 
	d="
M260.919281,211.125198 
	C260.996460,215.417587 261.073639,219.709961 261.094360,224.917130 
	C261.008179,237.571671 260.978516,249.311447 260.974426,261.025635 
	C260.999969,261.000031 261.051117,260.948883 260.579681,260.971130 
	C243.720749,261.012360 227.333237,261.031342 210.969330,260.579041 
	C210.978516,243.720413 210.964127,227.333069 211.421021,210.969330 
	C228.234634,211.037018 244.576950,211.081100 260.919281,211.125198 
z"/>
<path fill="#EEEEE9" opacity="1.000000" stroke="none" 
	d="
M271.086700,260.718506 
	C284.043274,260.814636 296.999878,260.910767 310.470184,261.503998 
	C310.972229,278.351105 310.960571,294.701111 310.948914,311.051117 
	C310.948883,311.051117 311.000000,311.000000 310.554077,310.996674 
	C293.721741,310.978546 277.335327,310.963715 260.948883,310.948883 
	C260.948883,310.948883 261.000000,311.000000 261.003296,310.554077 
	C261.021454,293.721741 261.036285,277.335327 261.051086,260.948883 
	C261.051117,260.948883 260.999969,261.000031 261.434692,261.002625 
	C264.941833,260.909698 268.014252,260.814117 271.086700,260.718506 
z"/>
<path fill="#3D3D3D" opacity="1.000000" stroke="none" 
	d="
M311.420349,311.028870 
	C310.960571,294.701111 310.972229,278.351105 310.929749,261.540344 
	C323.324646,261.006317 335.773682,260.933044 348.701569,260.913330 
	C352.830109,260.977692 356.479767,260.988464 360.590515,260.974976 
	C361.036621,277.336487 361.021637,293.722351 361.028870,310.579651 
	C344.664673,311.036316 328.278198,311.021484 311.420349,311.028870 
z"/>
<path fill="#3D3D3D" opacity="1.000000" stroke="none" 
	d="
M260.961487,210.743134 
	C244.576950,211.081100 228.234634,211.037018 211.446228,210.995819 
	C211.000137,210.998703 211.051117,211.051117 211.028900,210.579697 
	C211.022522,193.722092 211.038391,177.335892 211.027756,160.974899 
	C211.001266,161.000092 210.948898,161.051117 211.420319,161.028900 
	C228.278183,161.021484 244.664642,161.036301 261.051086,161.051117 
	C261.051086,161.051117 261.000122,160.999939 260.995392,161.445984 
	C261.005219,177.537445 261.019745,193.182846 261.034302,208.828262 
	C261.024078,209.339203 261.013885,209.850143 260.961487,210.743134 
z"/>
<path fill="#EDEDE8" opacity="1.000000" stroke="none" 
	d="
M261.373108,208.722183 
	C261.019745,193.182846 261.005219,177.537445 260.969788,161.420517 
	C276.791534,161.035828 292.634155,161.122650 308.689148,161.576416 
	C304.136322,164.198944 302.549103,167.846848 304.198639,172.137451 
	C305.208527,174.764191 305.845276,177.534363 306.874634,180.997253 
	C296.583008,180.997253 287.345337,180.984772 278.107727,181.000961 
	C269.710205,181.015656 266.029388,184.670929 265.999908,192.998001 
	C265.985229,197.140320 265.997345,201.282761 265.997345,204.991577 
	C264.387756,206.352936 263.049835,207.484528 261.373108,208.722183 
z"/>
<path fill="#3D3D3D" opacity="1.000000" stroke="none" 
	d="
M360.579742,160.971527 
	C361.021851,176.021973 360.992554,191.095062 360.841583,206.628723 
	C357.265503,206.973190 355.679749,205.375839 355.950623,201.747574 
	C356.197205,198.445114 356.058350,195.108429 355.988892,191.788940 
	C355.846710,184.995667 351.917297,181.073547 345.047028,181.017853 
	C335.615997,180.941391 326.183929,180.998734 316.088287,180.998734 
	C316.211456,178.431442 315.554352,175.853928 316.546783,174.410950 
	C319.884766,169.557648 318.367889,165.742188 314.940002,161.621765 
	C329.975922,161.183716 345.042114,161.088943 360.579742,160.971527 
z"/>
<path fill="#D8D8D8" opacity="1.000000" stroke="none" 
	d="
M294.186462,231.000107 
	C306.616547,230.999664 318.561981,230.999664 330.752563,230.999664 
	C330.752563,234.391708 330.752563,237.455154 330.752563,240.759506 
	C317.597046,240.759506 304.541809,240.759506 290.790283,240.759506 
	C292.626373,237.527283 287.760834,233.023117 294.186462,231.000107 
z"/>
<path fill="#D4D4D4" opacity="1.000000" stroke="none" 
	d="
M335.867554,208.553238 
	C335.959473,209.619781 336.023438,210.282196 335.999451,210.941406 
	C335.802795,216.346436 332.805969,220.642624 329.009094,220.989212 
	C325.598755,221.300522 322.030243,217.880737 321.132538,213.440918 
	C320.137634,208.520157 322.782471,202.658630 326.624969,201.268600 
	C330.270020,199.949997 333.340118,202.252121 335.867554,208.553238 
z"/>
<path fill="#D4D4D4" opacity="1.000000" stroke="none" 
	d="
M285.997986,211.002930 
	C286.889832,204.313889 289.900665,200.685455 293.947815,201.010635 
	C297.916351,201.329483 301.174896,206.171722 300.999054,211.489014 
	C300.838043,216.359390 297.631073,220.687027 293.958099,220.990433 
	C289.923706,221.323700 286.909821,217.698181 285.997986,211.002930 
z"/>
<path fill="#3C3C3C" opacity="1.000000" stroke="none" 
	d="
M271.018799,260.388824 
	C268.014252,260.814117 264.941833,260.909698 261.409119,261.028229 
	C260.978516,249.311447 261.008179,237.571671 261.159546,225.371368 
	C264.809570,224.963730 266.196808,226.656113 266.061066,230.254349 
	C265.835236,236.239685 266.206024,242.249084 265.935394,248.230698 
	C265.714966,253.103149 267.200043,256.996704 271.018799,260.388824 
z"/>
<path fill="#3D3D3D" opacity="1.000000" stroke="none" 
	d="
M109.225052,162.011322 
	C107.385735,161.628174 105.868805,161.047745 104.349113,161.040421 
	C90.196861,160.972153 76.044136,161.002380 61.420105,161.027176 
	C60.963524,144.664154 60.978386,128.278000 60.971077,111.420372 
	C77.335152,110.963554 93.721397,110.978203 110.557152,111.441048 
	C111.003853,128.263153 111.001045,144.637070 110.998245,161.010986 
	C110.514214,161.367279 110.030190,161.723587 109.225052,162.011322 
z"/>
<path fill="#3D3D3D" opacity="1.000000" stroke="none" 
	d="
M210.974945,210.972214 
	C210.964127,227.333069 210.978516,243.720413 210.995819,260.553864 
	C210.998734,260.999969 211.051102,260.948883 210.579681,260.971100 
	C193.721802,260.978485 177.335342,260.963684 160.974396,260.974396 
	C160.999908,260.999908 161.050903,261.050934 161.031769,260.579407 
	C160.997925,247.792465 160.983185,235.477066 160.968445,223.161682 
	C160.987076,219.380142 161.005692,215.598602 161.513367,211.400558 
	C178.351974,211.006409 194.701553,211.028763 211.051117,211.051117 
	C211.051117,211.051117 211.000137,210.998703 210.974945,210.972214 
z"/>
<path fill="#3D3D3D" opacity="1.000000" stroke="none" 
	d="
M161.050217,310.945679 
	C144.664093,310.966003 128.277969,310.986328 111.420364,311.028870 
	C110.960564,294.701111 110.972229,278.351135 110.929764,261.540344 
	C123.323822,261.005524 135.772018,260.931458 149.147491,260.890411 
	C153.733505,260.965912 157.392197,261.008423 161.050903,261.050934 
	C161.050903,261.050934 160.999908,260.999908 160.996643,261.445862 
	C160.978546,278.278259 160.963730,294.664673 160.974365,311.024902 
	C160.999832,310.998688 161.050217,310.945679 161.050217,310.945679 
z"/>
<path fill="#EEEEE9" opacity="1.000000" stroke="none" 
	d="
M111.389954,161.032745 
	C111.001045,144.637070 111.003853,128.263153 111.028435,111.417465 
	C111.050217,110.945679 110.999840,110.998665 111.445831,111.002655 
	C128.278259,111.021469 144.664688,111.036285 161.051117,111.051102 
	C161.051117,111.051102 161.000000,111.000000 160.996674,111.445915 
	C160.978531,128.278259 160.963715,144.664673 160.974457,161.025543 
	C161.000000,160.999985 161.051132,160.948868 160.579712,160.971527 
	C145.042038,161.088943 129.975769,161.183731 114.909500,161.278503 
	C113.866890,161.203827 112.824272,161.129166 111.389954,161.032745 
z"/>
<path fill="#EEEEE9" opacity="1.000000" stroke="none" 
	d="
M211.028900,210.579697 
	C194.701553,211.028763 178.351974,211.006409 161.541672,210.930359 
	C161.002625,209.864548 160.924301,208.852448 160.904633,207.004257 
	C160.992538,191.095062 161.021835,176.021973 161.051117,160.948868 
	C161.051132,160.948868 161.000000,160.999985 161.445908,161.003311 
	C178.279297,160.987656 194.666763,160.968674 211.054245,160.949707 
	C211.038391,177.335892 211.022522,193.722092 211.028900,210.579697 
z"/>
<path fill="#3D3D3D" opacity="1.000000" stroke="none" 
	d="
M160.579712,160.971527 
	C161.021835,176.021973 160.992538,191.095062 160.841583,206.628723 
	C157.265488,206.973190 155.679764,205.375824 155.950638,201.747574 
	C156.197189,198.445114 156.058380,195.108444 155.988907,191.788956 
	C155.846695,184.995682 151.917297,181.073563 145.047043,181.017853 
	C135.616013,180.941391 126.183929,180.998734 116.088326,180.998734 
	C116.211494,178.431427 115.554413,175.853973 116.546837,174.410950 
	C119.884628,169.557663 118.368073,165.742142 114.939880,161.621765 
	C129.975769,161.183731 145.042038,161.088943 160.579712,160.971527 
z"/>
<path fill="#D8D8D8" opacity="1.000000" stroke="none" 
	d="
M103.014854,240.995865 
	C98.879448,240.995865 95.240799,240.995865 91.304100,240.995865 
	C91.304100,237.714920 91.304100,234.649170 91.304100,231.288040 
	C104.289093,231.288040 117.342896,231.288040 130.699432,231.288040 
	C130.699432,234.283936 130.699432,237.349731 130.699432,240.995865 
	C121.684280,240.995865 112.597946,240.995865 103.014854,240.995865 
z"/>
<path fill="#D4D4D4" opacity="1.000000" stroke="none" 
	d="
M100.648575,207.780853 
	C100.862274,209.476013 101.057175,210.804245 100.964340,212.112045 
	C100.614975,217.033630 97.063377,221.110703 93.330414,220.997284 
	C89.635864,220.885056 86.229156,216.643250 86.028839,211.774963 
	C85.975151,210.470123 85.722549,208.747681 86.408813,207.917984 
	C88.468857,205.427338 90.612862,202.036102 93.343315,201.303238 
	C97.189873,200.270798 99.197105,204.015076 100.648575,207.780853 
z"/>
<path fill="#D4D4D4" opacity="1.000000" stroke="none" 
	d="
M128.119736,220.991425 
	C120.436050,217.574066 118.558609,208.449509 124.053230,203.079086 
	C126.495117,200.692383 129.213181,200.049454 132.027115,202.273331 
	C135.631638,205.121994 136.699921,209.114075 135.795334,213.395615 
	C134.982635,217.242096 133.041458,220.491028 128.119736,220.991425 
z"/>
<path fill="#ECECE7" opacity="1.000000" stroke="none" 
	d="
M161.031769,260.579407 
	C157.392197,261.008423 153.733505,260.965912 149.625366,260.943359 
	C154.456604,257.992126 156.439240,253.551590 156.088013,247.479477 
	C155.686142,240.531754 155.994904,233.542938 155.994904,227.012787 
	C157.608612,225.644638 158.949036,224.508163 160.628967,223.266693 
	C160.983185,235.477066 160.997925,247.792465 161.031769,260.579407 
z"/>
<path fill="#3C3C3C" opacity="1.000000" stroke="none" 
	d="
M71.018761,260.388855 
	C68.014244,260.814117 64.941803,260.909698 61.409119,261.028229 
	C60.978523,249.311432 61.008175,237.571671 61.159538,225.371338 
	C64.809502,224.963821 66.196823,226.655991 66.060997,230.254364 
	C65.835068,236.239700 66.205856,242.249100 65.935326,248.230728 
	C65.714966,253.103088 67.200012,256.996735 71.018761,260.388855 
z"/>
<path fill="#3D3D3D" opacity="1.000000" stroke="none" 
	d="
M111.028877,360.579681 
	C94.664680,361.036316 78.278259,361.021484 61.420364,361.028870 
	C60.963711,344.664673 60.978527,328.278259 60.971123,311.420349 
	C77.335320,310.963715 93.721741,310.978546 110.579636,310.971130 
	C111.036285,327.335327 111.021469,343.721802 111.028877,360.579681 
z"/>
<path fill="#3D3D3D" opacity="1.000000" stroke="none" 
	d="
M211.028870,360.579681 
	C194.664673,361.036285 178.278244,361.021484 161.420349,361.028870 
	C160.968124,344.663849 160.987350,328.276550 161.028397,311.417480 
	C161.050217,310.945679 160.999832,310.998688 161.445831,311.002686 
	C178.278244,311.021484 194.664673,311.036316 211.024872,311.025635 
	C210.998642,311.000183 210.945648,310.949799 210.945648,310.949799 
	C210.965988,327.335938 210.986313,343.722107 211.028870,360.579681 
z"/>
<path fill="#3D3D3D" opacity="1.000000" stroke="none" 
	d="
M260.579651,260.971130 
	C261.036285,277.335327 261.021454,293.721741 261.028870,310.579651 
	C244.663818,311.031891 228.276505,311.012695 211.417419,310.971619 
	C210.945648,310.949799 210.998642,311.000183 211.002655,310.554199 
	C211.021469,293.721741 211.036285,277.335327 211.051102,260.948883 
	C211.051102,260.948883 210.998734,260.999969 210.972229,261.025146 
	C227.333237,261.031342 243.720749,261.012360 260.579651,260.971130 
z"/>
<path fill="#3D3D3D" opacity="1.000000" stroke="none" 
	d="
M260.971130,311.420319 
	C277.335327,310.963715 293.721741,310.978546 310.579651,310.971130 
	C311.036316,327.335327 311.021484,343.721741 311.028870,360.579651 
	C294.664673,361.036285 278.278259,361.021484 261.420349,361.028870 
	C260.963684,344.664673 260.978516,328.278198 260.971130,311.420319 
z"/>
<path fill="#3D3D3D" opacity="1.000000" stroke="none" 
	d="
M310.971130,61.420326 
	C327.335327,60.963715 343.721741,60.978527 360.579651,60.971123 
	C361.036285,77.335320 361.021454,93.721741 361.028870,110.579636 
	C344.664673,111.036285 328.278259,111.021469 311.420349,111.028877 
	C310.963715,94.664650 310.978516,78.278206 310.971130,61.420326 
z"/>
<path fill="#3D3D3D" opacity="1.000000" stroke="none" 
	d="
M210.971100,61.420326 
	C227.335312,60.963711 243.721756,60.978527 260.579651,60.971123 
	C261.031921,77.336235 261.012695,93.723564 260.971741,110.582703 
	C260.949982,111.054504 261.000397,111.001541 260.554260,110.997444 
	C243.721710,110.978531 227.335297,110.963715 210.975098,110.974380 
	C211.001312,110.999855 211.054291,111.050232 211.054291,111.050232 
	C211.033966,94.664078 211.013657,78.277916 210.971100,61.420326 
z"/>
<path fill="#3D3D3D" opacity="1.000000" stroke="none" 
	d="
M211.027756,160.974884 
	C194.666763,160.968674 178.279297,160.987656 161.420349,161.028870 
	C160.963715,144.664673 160.978531,128.278259 160.971130,111.420364 
	C177.336166,110.968124 193.723465,110.987343 210.582520,111.028397 
	C211.054291,111.050232 211.001312,110.999855 210.997314,111.445847 
	C210.978516,128.278259 210.963699,144.664688 210.948883,161.051117 
	C210.948898,161.051117 211.001266,161.000092 211.027756,160.974884 
z"/>
<path fill="#3D3D3D" opacity="1.000000" stroke="none" 
	d="
M161.028900,110.579666 
	C144.664688,111.036285 128.278259,111.021469 111.420357,111.028877 
	C110.963707,94.664673 110.978531,78.278252 110.971123,61.420364 
	C127.335327,60.963715 143.721756,60.978527 160.579651,60.971123 
	C161.036301,77.335350 161.021484,93.721794 161.028900,110.579666 
z"/>
<path fill="#EEEEE9" opacity="1.000000" stroke="none" 
	d="
M211.420319,161.028900 
	C210.963699,144.664688 210.978516,128.278259 210.971100,111.420364 
	C227.335297,110.963715 243.721710,110.978531 260.579590,110.971115 
	C261.036224,127.335335 261.021393,143.721771 261.028809,160.579666 
	C244.664642,161.036301 228.278183,161.021484 211.420319,161.028900 
z"/>
<path fill="#EEEEE9" opacity="1.000000" stroke="none" 
	d="
M210.579681,260.971100 
	C211.036285,277.335327 211.021469,293.721741 211.028870,310.579651 
	C194.664673,311.036316 178.278244,311.021484 161.420364,311.028870 
	C160.963730,294.664673 160.978546,278.278259 160.971130,261.420349 
	C177.335342,260.963684 193.721802,260.978485 210.579681,260.971100 
z"/>
</svg>