<svg version="1.1" id="Layer_1" xmlns="http://www.w3.org/2000/svg" xmlns:xlink="http://www.w3.org/1999/xlink" x="0px" y="0px"
	 width="100%" viewBox="0 0 420 420" enable-background="new 0 0 420 420" xml:space="preserve">
<path fill="#3D3D3D" opacity="1.000000" stroke="none" 
	d="
M1.000000,156.000000 
	C1.000000,104.015320 1.000000,52.530636 1.000000,1.022976 
	C140.943039,1.022976 280.886078,1.022976 420.914551,1.022976 
	C420.914551,140.901367 420.914551,280.802795 420.914551,420.852112 
	C281.000122,420.852112 141.000076,420.852112 1.000000,420.852112 
	C1.000000,332.780579 1.000000,244.640289 1.000000,156.000000 
M61.003456,161.898254 
	C61.021908,178.279388 61.040359,194.660507 60.114738,211.005417 
	C43.849392,211.005417 27.584044,211.005417 11.317089,211.005417 
	C11.317089,227.962112 11.317089,244.352783 11.317089,260.945679 
	C28.105541,260.945679 44.577919,260.945679 61.006569,261.889282 
	C61.022495,278.276245 61.038422,294.663239 60.110771,311.006561 
	C43.846111,311.006561 27.581453,311.006561 11.317539,311.006561 
	C11.317539,327.963684 11.317539,344.354034 11.317539,360.945709 
	C28.106129,360.945709 44.578186,360.945709 61.006557,361.889313 
	C61.006557,378.154266 61.006557,394.419189 61.006557,410.681549 
	C77.964951,410.681549 94.355598,410.681549 110.949722,410.681549 
	C110.949722,393.891327 110.949722,377.418549 111.892303,360.992950 
	C128.278275,360.977203 144.664246,360.961426 161.006561,361.889282 
	C161.006561,378.154236 161.006561,394.419189 161.006561,410.681519 
	C177.964951,410.681519 194.355606,410.681519 210.949738,410.681519 
	C210.949738,393.891327 210.949738,377.418549 211.892303,360.992920 
	C228.279617,360.978516 244.666916,360.964142 261.007080,361.892303 
	C261.007080,378.156433 261.007080,394.420563 261.007080,410.682068 
	C277.964935,410.682068 294.355072,410.682068 310.945740,410.682068 
	C310.945740,393.893372 310.945740,377.421539 311.889343,360.993469 
	C328.269165,360.987976 344.648987,360.982452 361.003754,361.916840 
	C361.003754,378.173370 361.003754,394.429901 361.003754,410.689209 
	C377.961121,410.689209 394.345886,410.689209 410.665649,410.689209 
	C410.665649,393.991028 410.665649,377.605835 410.665649,361.080536 
	C393.863617,361.080536 377.395355,361.080536 360.990875,360.131439 
	C360.977142,343.736206 360.963440,327.341003 361.892303,310.992920 
	C378.157257,310.992920 394.422241,310.992920 410.679626,310.992920 
	C410.679626,294.031708 410.679626,277.640747 410.679626,261.035889 
	C393.886383,261.035889 377.412476,261.035889 360.998047,260.097076 
	C360.988190,247.785309 360.978333,235.473526 360.928680,222.216537 
	C360.979492,218.436630 361.030273,214.656723 362.002594,210.984039 
	C378.248016,210.984039 394.493469,210.984039 410.668152,210.984039 
	C410.668152,193.989944 410.668152,177.607834 410.668152,161.050171 
	C393.873322,161.050171 377.409515,161.050171 360.992889,160.107620 
	C360.977142,143.721664 360.961395,127.335716 361.889282,110.993439 
	C378.154236,110.993439 394.419189,110.993439 410.681549,110.993439 
	C410.681549,94.035080 410.681549,77.644424 410.681549,61.050274 
	C393.891357,61.050274 377.418579,61.050274 360.992950,60.107704 
	C360.992950,43.843578 360.992950,27.579451 360.992950,11.317901 
	C344.035095,11.317901 327.644958,11.317901 311.054291,11.317901 
	C311.054291,28.106615 311.054291,44.578430 310.110687,61.006557 
	C293.722382,61.021130 277.334076,61.035702 260.992950,60.107704 
	C260.992950,43.843578 260.992950,27.579456 260.992950,11.317912 
	C244.035095,11.317912 227.644974,11.317912 211.054291,11.317912 
	C211.054291,28.106632 211.054291,44.578438 210.110748,61.006561 
	C193.722412,61.021126 177.334061,61.035694 160.992950,60.107697 
	C160.992950,43.843575 160.992950,27.579454 160.992950,11.317904 
	C144.035095,11.317904 127.644981,11.317904 111.054329,11.317904 
	C111.054329,28.106613 111.054329,44.578419 110.110756,61.006557 
	C93.722061,61.020638 77.333374,61.034714 60.992798,60.106453 
	C60.992798,43.847965 60.992798,27.589478 60.992798,11.302027 
	C44.056339,11.302027 27.671864,11.302027 11.325342,11.302027 
	C11.325342,27.991024 11.325342,44.375870 11.325342,60.945477 
	C28.115881,60.945477 44.581955,60.945477 61.006317,61.889187 
	C61.022316,78.276199 61.038319,94.663216 60.110748,111.006561 
	C43.845463,111.006561 27.580177,111.006561 11.319416,111.006561 
	C11.319416,127.966240 11.319416,144.357239 11.319416,160.957840 
	C28.111395,160.957840 44.585022,160.957840 61.003456,161.898254 
z"/>
<path fill="#010101" opacity="1.000000" stroke="none" 
	d="
M361.081055,210.876816 
	C361.030273,214.656723 360.979492,218.436630 360.609070,222.794128 
	C358.949005,224.508209 357.608521,225.644699 355.994934,227.012695 
	C355.994934,233.543320 355.686523,240.532333 356.087952,247.480331 
	C356.438751,253.550964 354.457001,257.992249 348.700989,260.912842 
	C335.774017,260.933197 323.325745,261.006927 310.417847,261.043823 
	C297.001068,260.910828 284.043884,260.814667 271.018799,260.388794 
	C267.200043,256.996704 265.714966,253.103149 265.935394,248.230698 
	C266.206024,242.249084 265.835236,236.239685 266.061066,230.254349 
	C266.196808,226.656113 264.809601,224.963715 261.216064,224.456573 
	C261.073669,219.709976 260.996460,215.417603 260.961456,210.743164 
	C261.013855,209.850128 261.024078,209.339172 261.373138,208.722137 
	C263.049896,207.484497 264.387787,206.352921 265.997345,204.991608 
	C265.997345,201.282730 265.985229,197.140289 265.999908,192.997971 
	C266.029388,184.670914 269.710236,181.015656 278.107758,181.000961 
	C287.345367,180.984787 296.583038,180.997253 306.874634,180.997253 
	C305.846436,177.538345 305.209137,174.766174 304.198639,172.137451 
	C302.549225,167.846786 304.136322,164.198944 309.222961,162.011932 
	C310.028809,161.723892 310.513275,161.367294 311.389526,161.032593 
	C312.824127,161.129150 313.866913,161.203827 314.940002,161.621765 
	C318.367920,165.742172 319.884796,169.557632 316.546844,174.410950 
	C315.554382,175.853928 316.211517,178.431427 316.088379,180.998734 
	C326.183899,180.998734 335.615997,180.941391 345.047028,181.017853 
	C351.917297,181.073532 355.846649,184.995621 355.988831,191.788940 
	C356.058319,195.108429 356.197205,198.445099 355.950623,201.747559 
	C355.679749,205.375824 357.265472,206.973206 360.782959,207.464844 
	C360.924347,208.852539 361.002716,209.864685 361.081055,210.876816 
M291.010406,232.679688 
	C291.010406,235.421722 291.010406,238.163757 291.010406,240.641907 
	C304.794800,240.641907 317.854279,240.641907 330.808472,240.641907 
	C330.808472,237.335541 330.808472,234.384888 330.808472,231.501907 
	C330.336761,231.295456 330.049500,231.060425 329.761414,231.059433 
	C319.944122,231.025742 310.126282,230.956528 300.309662,231.033615 
	C297.233154,231.057755 294.159821,231.484512 291.010406,232.679688 
M321.499756,207.389435 
	C321.334991,208.854568 320.986511,210.326309 321.039001,211.783615 
	C321.214172,216.645462 324.653290,220.893494 328.341522,220.998215 
	C332.231659,221.108673 335.784760,216.751541 336.000946,211.605591 
	C336.198273,206.907211 333.522156,201.908844 330.036224,201.182480 
	C325.636963,200.265808 323.348999,202.993790 321.499756,207.389435 
M295.750458,201.420502 
	C291.302460,199.940323 288.838989,202.508728 287.062439,205.944717 
	C284.915955,210.096268 285.877777,215.726273 288.979004,218.841202 
	C291.915222,221.790375 295.126892,221.778671 298.060181,218.808182 
	C302.611084,214.199478 301.875031,206.779007 295.750458,201.420502 
z"/>
<path fill="#EEEEE9" opacity="1.000000" stroke="none" 
	d="
M61.048027,60.945477 
	C44.581955,60.945477 28.115881,60.945477 11.325342,60.945477 
	C11.325342,44.375870 11.325342,27.991024 11.325342,11.302027 
	C27.671864,11.302027 44.056339,11.302027 60.992798,11.302027 
	C60.992798,27.589478 60.992798,43.847965 60.995193,60.552414 
	C60.997593,60.998375 61.048027,60.945477 61.048027,60.945477 
z"/>
<path fill="#EEEEE9" opacity="1.000000" stroke="none" 
	d="
M61.050297,260.945679 
	C44.577919,260.945679 28.105541,260.945679 11.317089,260.945679 
	C11.317089,244.352783 11.317089,227.962112 11.317089,211.005417 
	C27.584044,211.005417 43.849392,211.005417 60.562107,210.997116 
	C61.009476,210.988815 60.948822,210.949493 60.970509,211.420914 
	C60.977776,228.278580 60.963356,244.664841 60.974426,261.024872 
	C60.999916,260.998657 61.050297,260.945679 61.050297,260.945679 
z"/>
<path fill="#EEEEE9" opacity="1.000000" stroke="none" 
	d="
M360.927124,361.080536 
	C377.395355,361.080536 393.863617,361.080536 410.665649,361.080536 
	C410.665649,377.605835 410.665649,393.991028 410.665649,410.689209 
	C394.345886,410.689209 377.961121,410.689209 361.003754,410.689209 
	C361.003754,394.429901 361.003754,378.173370 360.990448,361.471954 
	C360.977142,361.027069 360.927124,361.080536 360.927124,361.080536 
z"/>
<path fill="#EEEEE9" opacity="1.000000" stroke="none" 
	d="
M61.054348,311.050201 
	C61.038422,294.663239 61.022495,278.276245 61.028435,261.417480 
	C61.050297,260.945679 60.999916,260.998657 61.445911,261.003235 
	C76.955452,260.912720 92.018997,260.817688 107.474182,260.771362 
	C108.916649,260.856598 109.967461,260.893097 111.010376,261.401306 
	C110.984612,278.265717 110.966751,294.658417 110.974449,311.025574 
	C111.000000,311.000000 111.051102,310.948883 110.579636,310.971130 
	C93.721741,310.978546 77.335320,310.963715 60.975128,310.974365 
	C61.001350,310.999817 61.054348,311.050201 61.054348,311.050201 
z"/>
<path fill="#EEEEE9" opacity="1.000000" stroke="none" 
	d="
M310.945740,360.949738 
	C310.945740,377.421539 310.945740,393.893372 310.945740,410.682068 
	C294.355072,410.682068 277.964935,410.682068 261.007080,410.682068 
	C261.007080,394.420563 261.007080,378.156433 261.004181,361.446228 
	C261.001282,361.000122 260.948883,361.051117 261.420349,361.028870 
	C278.278259,361.021484 294.664673,361.036285 311.024902,361.025635 
	C310.998688,361.000122 310.945740,360.949738 310.945740,360.949738 
z"/>
<path fill="#EEEEE9" opacity="1.000000" stroke="none" 
	d="
M360.938568,261.035889 
	C377.412476,261.035889 393.886383,261.035889 410.679626,261.035889 
	C410.679626,277.640747 410.679626,294.031708 410.679626,310.992920 
	C394.422241,310.992920 378.157257,310.992920 361.446228,310.995819 
	C361.000122,310.998718 361.051117,311.051117 361.028870,310.579651 
	C361.021637,293.722351 361.036621,277.336487 361.019531,260.966888 
	C360.987427,260.983124 360.938568,261.035889 360.938568,261.035889 
z"/>
<path fill="#EEEEE9" opacity="1.000000" stroke="none" 
	d="
M61.050243,360.945709 
	C44.578186,360.945709 28.106129,360.945709 11.317539,360.945709 
	C11.317539,344.354034 11.317539,327.963684 11.317539,311.006561 
	C27.581453,311.006561 43.846111,311.006561 60.582558,311.028381 
	C61.054348,311.050201 61.001350,310.999817 60.997345,311.445801 
	C60.978527,328.278259 60.963711,344.664673 60.974373,361.024902 
	C60.999851,360.998688 61.050243,360.945709 61.050243,360.945709 
z"/>
<path fill="#EEEEE9" opacity="1.000000" stroke="none" 
	d="
M161.050217,360.945679 
	C144.664246,360.961426 128.278275,360.977203 111.446213,360.995850 
	C111.000114,360.998718 111.051102,361.051117 111.028877,360.579681 
	C111.021469,343.721802 111.036285,327.335327 111.051102,310.948883 
	C111.051102,310.948883 111.000000,311.000000 111.445923,311.003326 
	C128.277969,310.986328 144.664093,310.966003 161.028397,311.417480 
	C160.987350,328.276550 160.968124,344.663849 160.974365,361.024902 
	C160.999832,360.998688 161.050217,360.945679 161.050217,360.945679 
z"/>
<path fill="#EEEEE9" opacity="1.000000" stroke="none" 
	d="
M261.027771,360.974915 
	C244.666916,360.964142 228.279617,360.978516 211.446228,360.995789 
	C211.000137,360.998688 211.051102,361.051117 211.028870,360.579681 
	C210.986313,343.722107 210.965988,327.335938 211.417419,310.971619 
	C228.276505,311.012665 244.663818,311.031891 261.025574,311.025574 
	C261.000000,311.000000 260.948883,310.948883 260.971130,311.420319 
	C260.978516,328.278198 260.963684,344.664673 260.948883,361.051117 
	C260.948883,361.051117 261.001282,361.000122 261.027771,360.974915 
z"/>
<path fill="#EEEEE9" opacity="1.000000" stroke="none" 
	d="
M360.974915,310.972229 
	C360.963440,327.341003 360.977142,343.736206 360.958984,360.605988 
	C360.927124,361.080536 360.977142,361.027069 361.002991,361.002014 
	C344.648987,360.982452 328.269165,360.987976 311.417542,360.971619 
	C310.945740,360.949738 310.998688,361.000122 311.002686,360.554138 
	C311.021484,343.721741 311.036316,327.335327 311.025635,310.975098 
	C311.000122,311.001312 310.949738,311.054260 311.421021,311.030670 
	C328.278564,311.021759 344.664856,311.036438 361.051117,311.051117 
	C361.051117,311.051117 361.000122,310.998718 360.974915,310.972229 
z"/>
<path fill="#EEEEE9" opacity="1.000000" stroke="none" 
	d="
M110.974915,360.972229 
	C110.949722,377.418549 110.949722,393.891327 110.949722,410.681549 
	C94.355598,410.681549 77.964951,410.681549 61.006557,410.681549 
	C61.006557,394.419189 61.006557,378.154266 61.028400,361.417511 
	C61.050243,360.945709 60.999851,360.998688 61.445843,361.002686 
	C78.278259,361.021484 94.664680,361.036316 111.051102,361.051117 
	C111.051102,361.051117 111.000114,360.998718 110.974915,360.972229 
z"/>
<path fill="#EEEEE9" opacity="1.000000" stroke="none" 
	d="
M210.974945,360.972229 
	C210.949738,377.418549 210.949738,393.891327 210.949738,410.681519 
	C194.355606,410.681519 177.964951,410.681519 161.006561,410.681519 
	C161.006561,394.419189 161.006561,378.154236 161.028381,361.417480 
	C161.050217,360.945679 160.999832,360.998688 161.445831,361.002686 
	C178.278244,361.021484 194.664673,361.036285 211.051102,361.051117 
	C211.051102,361.051117 211.000137,360.998688 210.974945,360.972229 
z"/>
<path fill="#EEEEE9" opacity="1.000000" stroke="none" 
	d="
M314.909729,161.278503 
	C313.866913,161.203827 312.824127,161.129150 311.390564,160.563232 
	C311.016937,143.697632 311.034027,127.323265 311.025574,110.974457 
	C311.000000,111.000000 310.948883,111.051102 311.420349,111.028877 
	C328.278259,111.021469 344.664673,111.036285 361.024902,111.025635 
	C360.998688,111.000160 360.945679,110.949768 360.945679,110.949768 
	C360.961395,127.335716 360.977142,143.721664 360.995819,160.553711 
	C360.998749,160.999802 361.051147,160.948868 360.579742,160.971512 
	C345.042145,161.088943 329.975922,161.183716 314.909729,161.278503 
z"/>
<path fill="#EEEEE9" opacity="1.000000" stroke="none" 
	d="
M111.054329,61.050224 
	C111.054329,44.578419 111.054329,28.106613 111.054329,11.317904 
	C127.644981,11.317904 144.035095,11.317904 160.992950,11.317904 
	C160.992950,27.579454 160.992950,43.843575 160.995819,60.553787 
	C160.998703,60.999878 161.051117,60.948898 160.579697,60.971123 
	C143.721817,60.978527 127.335358,60.963711 110.975121,60.974369 
	C111.001343,60.999844 111.054329,61.050224 111.054329,61.050224 
z"/>
<path fill="#EEEEE9" opacity="1.000000" stroke="none" 
	d="
M211.054291,61.050247 
	C211.054291,44.578438 211.054291,28.106632 211.054291,11.317912 
	C227.644974,11.317912 244.035095,11.317912 260.992950,11.317912 
	C260.992950,27.579456 260.992950,43.843578 260.995850,60.553795 
	C260.998718,60.999886 261.051117,60.948898 260.579681,60.971123 
	C243.721786,60.978531 227.335342,60.963715 210.975098,60.974380 
	C211.001312,60.999863 211.054291,61.050247 211.054291,61.050247 
z"/>
<path fill="#EEEEE9" opacity="1.000000" stroke="none" 
	d="
M311.054291,61.050243 
	C311.054291,44.578430 311.054291,28.106615 311.054291,11.317901 
	C327.644958,11.317901 344.035095,11.317901 360.992950,11.317901 
	C360.992950,27.579451 360.992950,43.843578 360.995850,60.553795 
	C360.998718,60.999886 361.051117,60.948898 360.579681,60.971123 
	C343.721802,60.978527 327.335327,60.963711 310.975098,60.974373 
	C311.001312,60.999851 311.054291,61.050243 311.054291,61.050243 
z"/>
<path fill="#EEEEE9" opacity="1.000000" stroke="none" 
	d="
M60.971138,61.023582 
	C77.333374,61.034714 93.722061,61.020638 110.582542,61.028389 
	C111.054329,61.050224 111.001343,60.999844 110.997345,61.445835 
	C111.013680,78.277962 111.034004,94.664093 110.582550,111.028397 
	C93.723473,110.987343 77.336182,110.968117 60.975113,110.974373 
	C61.001331,110.999847 61.054321,111.050232 61.054321,111.050232 
	C61.038319,94.663216 61.022316,78.276199 61.027172,61.417332 
	C61.048027,60.945477 60.997593,60.998375 60.971138,61.023582 
z"/>
<path fill="#EEEEE9" opacity="1.000000" stroke="none" 
	d="
M160.972214,61.025070 
	C177.334061,61.035694 193.722412,61.021126 210.582520,61.028404 
	C211.054291,61.050247 211.001312,60.999863 210.997330,61.445847 
	C211.013657,78.277962 211.033981,94.664093 210.582535,111.028397 
	C193.722397,111.021111 177.334045,111.035660 160.969299,110.578918 
	C161.012329,93.721390 161.031723,77.335144 161.051117,60.948898 
	C161.051117,60.948898 160.998703,60.999878 160.972214,61.025070 
z"/>
<path fill="#EEEEE9" opacity="1.000000" stroke="none" 
	d="
M260.972229,61.025078 
	C277.334076,61.035702 293.722382,61.021130 310.582489,61.028400 
	C311.054291,61.050243 311.001312,60.999851 310.997314,61.445843 
	C310.978516,78.278259 310.963715,94.664680 310.948883,111.051102 
	C310.948883,111.051102 311.000000,111.000000 310.554077,110.996628 
	C293.722107,111.013680 277.336060,111.034096 260.971741,110.582703 
	C261.012695,93.723564 261.031921,77.336227 261.051117,60.948898 
	C261.051117,60.948898 260.998718,60.999886 260.972229,61.025078 
z"/>
<path fill="#EEEEE9" opacity="1.000000" stroke="none" 
	d="
M360.972229,61.025078 
	C377.418579,61.050274 393.891357,61.050274 410.681549,61.050274 
	C410.681549,77.644424 410.681549,94.035080 410.681549,110.993439 
	C394.419189,110.993439 378.154236,110.993439 361.417480,110.971603 
	C360.945679,110.949768 360.998688,111.000160 361.002686,110.554161 
	C361.021454,93.721741 361.036285,77.335320 361.051117,60.948898 
	C361.051117,60.948898 360.998718,60.999886 360.972229,61.025078 
z"/>
<path fill="#EEEEE9" opacity="1.000000" stroke="none" 
	d="
M61.058651,160.957840 
	C44.585022,160.957840 28.111395,160.957840 11.319416,160.957840 
	C11.319416,144.357239 11.319416,127.966240 11.319416,111.006561 
	C27.580177,111.006561 43.845463,111.006561 60.582535,111.028397 
	C61.054321,111.050232 61.001331,110.999847 60.997337,111.445831 
	C60.978405,128.277832 60.963470,144.663849 60.978924,161.030273 
	C61.009312,161.010681 61.058651,160.957840 61.058651,160.957840 
z"/>
<path fill="#EEEEE9" opacity="1.000000" stroke="none" 
	d="
M361.541809,210.930420 
	C361.002716,209.864685 360.924347,208.852539 360.904633,207.004288 
	C360.992554,191.095062 361.021851,176.021973 361.051147,160.948868 
	C361.051147,160.948868 360.998749,160.999802 360.972229,161.024994 
	C377.409515,161.050171 393.873322,161.050171 410.668152,161.050171 
	C410.668152,177.607834 410.668152,193.989944 410.668152,210.984039 
	C394.493469,210.984039 378.248016,210.984039 361.541809,210.930420 
z"/>
<path fill="#ECECE7" opacity="1.000000" stroke="none" 
	d="
M61.034142,211.015228 
	C61.040359,194.660507 61.021908,178.279388 61.031052,161.428040 
	C61.058651,160.957840 61.009312,161.010681 61.450348,161.006577 
	C78.278923,160.984711 94.666466,160.966949 111.030945,161.278625 
	C110.963287,162.045074 110.918701,162.482101 110.451782,162.960129 
	C83.741402,164.153076 64.279472,183.930344 62.592804,210.930542 
	C61.827850,210.973419 61.388336,210.961456 60.948822,210.949493 
	C60.948822,210.949493 61.009476,210.988815 61.034142,211.015228 
z"/>
<path fill="#ECECE7" opacity="1.000000" stroke="none" 
	d="
M349.179657,260.966278 
	C354.457001,257.992249 356.438751,253.550964 356.087952,247.480331 
	C355.686523,240.532333 355.994934,233.543320 355.994934,227.012695 
	C357.608521,225.644699 358.949005,224.508209 360.628967,223.266754 
	C360.978333,235.473526 360.988190,247.785309 360.968323,260.566467 
	C360.938568,261.035889 360.987427,260.983124 360.558411,260.991211 
	C356.479492,260.988281 352.829590,260.977264 349.179657,260.966278 
z"/>
<path fill="#3D3D3D" opacity="1.000000" stroke="none" 
	d="
M260.949982,111.054504 
	C277.336060,111.034096 293.722107,111.013680 310.579651,110.971085 
	C311.034027,127.323265 311.016937,143.697632 310.998779,160.541351 
	C310.513275,161.367294 310.028809,161.723892 309.010559,161.644974 
	C292.634155,161.122650 276.791565,161.035828 260.974548,160.974503 
	C261.000092,161.000000 261.051086,161.051117 261.028809,160.579651 
	C261.021393,143.721756 261.036224,127.335320 261.025757,110.975220 
	C261.000397,111.001541 260.949982,111.054504 260.949982,111.054504 
z"/>
<path fill="#3D3D3D" opacity="1.000000" stroke="none" 
	d="
M348.700989,260.912842 
	C352.829590,260.977264 356.479492,260.988281 360.590515,260.974976 
	C361.036621,277.336487 361.021637,293.722351 361.028870,310.579651 
	C344.664856,311.036438 328.278564,311.021759 311.442871,310.558868 
	C310.954773,293.767334 310.916107,277.423981 310.877441,261.080658 
	C323.325745,261.006927 335.774017,260.933197 348.700989,260.912842 
z"/>
<path fill="#EEEEE9" opacity="1.000000" stroke="none" 
	d="
M260.919281,211.125229 
	C260.996460,215.417603 261.073669,219.709976 261.094360,224.917130 
	C261.008179,237.571671 260.978516,249.311447 260.974426,261.025635 
	C260.999969,261.000031 261.051117,260.948883 260.579681,260.971130 
	C243.722092,261.013672 227.335938,261.033997 210.971603,260.582520 
	C210.978867,243.722366 210.964325,227.334030 211.421051,210.969299 
	C228.234634,211.037033 244.576965,211.081131 260.919281,211.125229 
z"/>
<path fill="#EEEEE9" opacity="1.000000" stroke="none" 
	d="
M310.417847,261.043823 
	C310.916107,277.423981 310.954773,293.767334 310.971619,310.582458 
	C310.949738,311.054260 311.000122,311.001312 310.554138,310.997314 
	C293.721741,310.978546 277.335327,310.963715 260.948883,310.948883 
	C260.948883,310.948883 261.000000,311.000000 261.003296,310.554077 
	C261.021454,293.721741 261.036285,277.335327 261.051086,260.948883 
	C261.051117,260.948883 260.999969,261.000031 261.434692,261.002625 
	C264.941833,260.909698 268.014252,260.814117 271.086700,260.718506 
	C284.043884,260.814667 297.001068,260.910828 310.417847,261.043823 
z"/>
<path fill="#3D3D3D" opacity="1.000000" stroke="none" 
	d="
M260.961456,210.743164 
	C244.576965,211.081131 228.234634,211.037033 211.446228,210.995789 
	C211.000137,210.998657 211.051102,211.051102 211.028870,210.579681 
	C211.021469,193.721802 211.036285,177.335358 211.025543,160.974457 
	C211.000000,161.000000 210.948898,161.051102 211.420319,161.028885 
	C228.278183,161.021484 244.664642,161.036301 261.051086,161.051117 
	C261.051086,161.051117 261.000092,161.000000 260.995361,161.446014 
	C261.005219,177.537430 261.019745,193.182816 261.034302,208.828217 
	C261.024078,209.339172 261.013855,209.850128 260.961456,210.743164 
z"/>
<path fill="#EDEDE8" opacity="1.000000" stroke="none" 
	d="
M261.373108,208.722137 
	C261.019745,193.182816 261.005219,177.537430 260.969818,161.420517 
	C276.791565,161.035828 292.634155,161.122650 308.689148,161.576416 
	C304.136322,164.198944 302.549225,167.846786 304.198639,172.137451 
	C305.209137,174.766174 305.846436,177.538345 306.874634,180.997253 
	C296.583038,180.997253 287.345367,180.984787 278.107758,181.000961 
	C269.710236,181.015656 266.029388,184.670914 265.999908,192.997971 
	C265.985229,197.140289 265.997345,201.282730 265.997345,204.991608 
	C264.387787,206.352921 263.049896,207.484497 261.373108,208.722137 
z"/>
<path fill="#3D3D3D" opacity="1.000000" stroke="none" 
	d="
M360.579742,160.971512 
	C361.021851,176.021973 360.992554,191.095062 360.841583,206.628723 
	C357.265472,206.973206 355.679749,205.375824 355.950623,201.747559 
	C356.197205,198.445099 356.058319,195.108429 355.988831,191.788940 
	C355.846649,184.995621 351.917297,181.073532 345.047028,181.017853 
	C335.615997,180.941391 326.183899,180.998734 316.088379,180.998734 
	C316.211517,178.431427 315.554382,175.853928 316.546844,174.410950 
	C319.884796,169.557632 318.367920,165.742172 314.940002,161.621765 
	C329.975922,161.183716 345.042145,161.088943 360.579742,160.971512 
z"/>
<path fill="#D8D8D8" opacity="1.000000" stroke="none" 
	d="
M291.047729,232.203339 
	C294.159821,231.484512 297.233154,231.057755 300.309662,231.033615 
	C310.126282,230.956528 319.944122,231.025742 329.761414,231.059433 
	C330.049500,231.060425 330.336761,231.295456 330.808472,231.501907 
	C330.808472,234.384888 330.808472,237.335541 330.808472,240.641907 
	C317.854279,240.641907 304.794800,240.641907 291.010406,240.641907 
	C291.010406,238.163757 291.010406,235.421722 291.047729,232.203339 
z"/>
<path fill="#D4D4D4" opacity="1.000000" stroke="none" 
	d="
M321.668945,207.022934 
	C323.348999,202.993790 325.636963,200.265808 330.036224,201.182480 
	C333.522156,201.908844 336.198273,206.907211 336.000946,211.605591 
	C335.784760,216.751541 332.231659,221.108673 328.341522,220.998215 
	C324.653290,220.893494 321.214172,216.645462 321.039001,211.783615 
	C320.986511,210.326309 321.334991,208.854568 321.668945,207.022934 
z"/>
<path fill="#D4D4D4" opacity="1.000000" stroke="none" 
	d="
M296.065369,201.646622 
	C301.875031,206.779007 302.611084,214.199478 298.060181,218.808182 
	C295.126892,221.778671 291.915222,221.790375 288.979004,218.841202 
	C285.877777,215.726273 284.915955,210.096268 287.062439,205.944717 
	C288.838989,202.508728 291.302460,199.940323 296.065369,201.646622 
z"/>
<path fill="#3C3C3C" opacity="1.000000" stroke="none" 
	d="
M271.018799,260.388824 
	C268.014252,260.814117 264.941833,260.909698 261.409119,261.028229 
	C260.978516,249.311447 261.008179,237.571671 261.159546,225.371368 
	C264.809601,224.963715 266.196808,226.656113 266.061066,230.254349 
	C265.835236,236.239685 266.206024,242.249084 265.935394,248.230698 
	C265.714966,253.103149 267.200043,256.996704 271.018799,260.388824 
z"/>
<path fill="#3D3D3D" opacity="1.000000" stroke="none" 
	d="
M60.970509,211.420914 
	C61.388336,210.961456 61.827850,210.973419 62.616959,211.366440 
	C63.309704,213.868210 63.782494,215.977142 63.975887,218.111420 
	C65.836021,238.639603 83.912323,256.998108 104.465820,259.032745 
	C105.384819,259.123688 106.212387,260.138306 107.082535,260.722656 
	C92.018997,260.817688 76.955452,260.912720 61.420422,261.029419 
	C60.963356,244.664841 60.977776,228.278580 60.970509,211.420914 
z"/>
<path fill="#020202" opacity="1.000000" stroke="none" 
	d="
M107.474182,260.771362 
	C106.212387,260.138306 105.384819,259.123688 104.465820,259.032745 
	C83.912323,256.998108 65.836021,238.639603 63.975887,218.111420 
	C63.782494,215.977142 63.309704,213.868210 62.942394,211.311615 
	C64.279472,183.930344 83.741402,164.153076 110.887848,162.983978 
	C113.866936,163.308640 115.979774,163.712326 118.109543,163.982666 
	C139.789566,166.734512 155.990326,182.794724 159.025955,204.457687 
	C159.156662,205.390472 160.137924,206.204041 160.771606,207.465729 
	C160.847748,208.912384 160.875275,209.966461 160.961334,211.016678 
	C161.019897,211.012833 161.017380,210.895508 160.623627,211.054138 
	C160.157806,211.535080 160.038162,211.854782 160.020416,212.180038 
	C158.654312,237.234314 143.274857,254.798920 118.726318,259.362457 
	C116.104111,259.849915 113.505211,260.462738 110.946671,261.024078 
	C110.997841,261.030762 111.018280,260.929596 111.018280,260.929565 
	C109.967461,260.893097 108.916649,260.856598 107.474182,260.771362 
M94.689354,225.013824 
	C90.086517,228.302231 85.483681,231.590637 80.835381,234.911530 
	C97.459358,255.252197 126.441483,255.161697 141.517944,235.620407 
	C130.406830,221.715500 112.315521,217.467392 94.689354,225.013824 
M122.732132,206.127228 
	C127.323639,199.346786 127.137978,192.504745 122.215477,187.087158 
	C117.738449,182.159866 109.732285,180.887207 104.105751,184.424911 
	C99.091644,187.577530 96.505569,192.205170 97.030579,198.203964 
	C97.535316,203.971039 100.644562,208.164352 105.949860,210.288025 
	C112.040985,212.726273 117.607681,211.504105 122.732132,206.127228 
z"/>
<path fill="#3D3D3D" opacity="1.000000" stroke="none" 
	d="
M161.050217,310.945679 
	C144.664093,310.966003 128.277969,310.986328 111.420364,311.028870 
	C110.966751,294.658417 110.984612,278.265717 111.010376,261.401306 
	C111.018280,260.929596 110.997841,261.030762 111.421982,261.018860 
	C128.247742,261.021606 144.649338,261.036285 161.025436,261.025452 
	C160.999924,260.999939 160.948898,260.948883 160.971130,261.420319 
	C160.978546,278.278198 160.963730,294.664673 160.974365,311.024902 
	C160.999832,310.998688 161.050217,310.945679 161.050217,310.945679 
z"/>
<path fill="#3D3D3D" opacity="1.000000" stroke="none" 
	d="
M111.028877,360.579681 
	C94.664680,361.036316 78.278259,361.021484 61.420364,361.028870 
	C60.963711,344.664673 60.978527,328.278259 60.971123,311.420349 
	C77.335320,310.963715 93.721741,310.978546 110.579636,310.971130 
	C111.036285,327.335327 111.021469,343.721802 111.028877,360.579681 
z"/>
<path fill="#3D3D3D" opacity="1.000000" stroke="none" 
	d="
M260.971130,311.420319 
	C277.335327,310.963715 293.721741,310.978546 310.579651,310.971130 
	C311.036316,327.335327 311.021484,343.721741 311.028870,360.579651 
	C294.664673,361.036285 278.278259,361.021484 261.420349,361.028870 
	C260.963684,344.664673 260.978516,328.278198 260.971130,311.420319 
z"/>
<path fill="#3D3D3D" opacity="1.000000" stroke="none" 
	d="
M211.028870,360.579681 
	C194.664673,361.036285 178.278244,361.021484 161.420349,361.028870 
	C160.968124,344.663849 160.987350,328.276550 161.028397,311.417480 
	C161.050217,310.945679 160.999832,310.998688 161.445831,311.002686 
	C178.278244,311.021484 194.664673,311.036316 211.024872,311.025635 
	C210.998642,311.000183 210.945648,310.949799 210.945648,310.949799 
	C210.965988,327.335938 210.986313,343.722107 211.028870,360.579681 
z"/>
<path fill="#3D3D3D" opacity="1.000000" stroke="none" 
	d="
M260.579651,260.971130 
	C261.036285,277.335327 261.021454,293.721741 261.028870,310.579651 
	C244.663818,311.031891 228.276505,311.012665 211.417419,310.971619 
	C210.945648,310.949799 210.998642,311.000183 211.002655,310.554199 
	C211.021469,293.721741 211.036285,277.335327 211.025635,260.975098 
	C211.000168,261.001312 210.949783,261.054321 210.949783,261.054321 
	C227.335938,261.033997 243.722092,261.013672 260.579651,260.971130 
z"/>
<path fill="#3D3D3D" opacity="1.000000" stroke="none" 
	d="
M360.579681,60.971123 
	C361.036285,77.335320 361.021454,93.721741 361.028870,110.579636 
	C344.664673,111.036285 328.278259,111.021469 311.420349,111.028877 
	C310.963715,94.664680 310.978516,78.278259 310.971130,61.420364 
	C327.335327,60.963711 343.721802,60.978527 360.579681,60.971123 
z"/>
<path fill="#3D3D3D" opacity="1.000000" stroke="none" 
	d="
M160.579681,60.971123 
	C161.031723,77.335144 161.012329,93.721390 160.995789,110.553726 
	C160.998657,110.999817 161.051117,110.948898 160.579651,110.971123 
	C143.721756,110.978531 127.335327,110.963715 110.975121,110.974365 
	C111.001343,110.999840 111.054329,111.050224 111.054337,111.050224 
	C111.034004,94.664093 111.013680,78.277962 110.971130,61.420361 
	C127.335358,60.963711 143.721817,60.978527 160.579681,60.971123 
z"/>
<path fill="#3D3D3D" opacity="1.000000" stroke="none" 
	d="
M260.579681,60.971123 
	C261.031921,77.336227 261.012695,93.723564 260.971741,110.582703 
	C260.949982,111.054504 261.000397,111.001541 260.554260,110.997444 
	C243.721710,110.978531 227.335297,110.963715 210.975098,110.974365 
	C211.001328,110.999832 211.054306,111.050224 211.054306,111.050224 
	C211.033981,94.664093 211.013657,78.277962 210.971115,61.420364 
	C227.335342,60.963715 243.721786,60.978531 260.579681,60.971123 
z"/>
<path fill="#3D3D3D" opacity="1.000000" stroke="none" 
	d="
M111.054008,160.949188 
	C94.666466,160.966949 78.278923,160.984711 61.419960,161.026169 
	C60.963470,144.663849 60.978405,128.277832 60.971119,111.420364 
	C77.336182,110.968117 93.723473,110.987343 110.582542,111.028397 
	C111.054329,111.050224 111.001343,110.999840 110.997345,111.445831 
	C110.978485,128.278137 110.963638,144.664444 110.975998,161.026306 
	C111.003204,161.001831 111.054008,160.949188 111.054008,160.949188 
z"/>
<path fill="#3D3D3D" opacity="1.000000" stroke="none" 
	d="
M160.972168,111.025009 
	C177.334045,111.035660 193.722397,111.021111 210.582535,111.028397 
	C211.054306,111.050224 211.001328,110.999832 210.997330,111.445831 
	C210.978516,128.278259 210.963699,144.664673 210.948883,161.051102 
	C210.948898,161.051102 211.000000,161.000000 210.554092,160.996674 
	C193.721863,160.978500 177.335556,160.963654 160.973602,160.975433 
	C160.997955,161.002045 161.051208,161.050766 161.028931,160.579361 
	C161.021484,143.721603 161.036301,127.335251 161.051117,110.948898 
	C161.051117,110.948898 160.998657,110.999817 160.972168,111.025009 
z"/>
<path fill="#3D3D3D" opacity="1.000000" stroke="none" 
	d="
M160.722992,207.073151 
	C160.137924,206.204041 159.156662,205.390472 159.025955,204.457687 
	C155.990326,182.794724 139.789566,166.734512 118.109543,163.982666 
	C115.979774,163.712326 113.866936,163.308640 111.310173,162.942978 
	C110.918701,162.482101 110.963287,162.045074 111.030945,161.278625 
	C111.054008,160.949188 111.003204,161.001831 111.447456,161.003662 
	C128.278214,161.020599 144.664703,161.035690 161.051208,161.050781 
	C161.051208,161.050766 160.997955,161.002045 160.996246,161.446869 
	C160.904007,176.952179 160.813492,192.012665 160.722992,207.073151 
z"/>
<path fill="#EEEEE9" opacity="1.000000" stroke="none" 
	d="
M211.420319,161.028885 
	C210.963699,144.664673 210.978516,128.278259 210.971100,111.420364 
	C227.335297,110.963715 243.721710,110.978531 260.579590,110.971115 
	C261.036224,127.335320 261.021393,143.721756 261.028809,160.579651 
	C244.664642,161.036301 228.278183,161.021484 211.420319,161.028885 
z"/>
<path fill="#3D3D3D" opacity="1.000000" stroke="none" 
	d="
M210.974945,210.972168 
	C210.964325,227.334030 210.978867,243.722366 210.971603,260.582520 
	C210.949783,261.054321 211.000168,261.001312 210.554169,260.997314 
	C193.721756,260.978516 177.335327,260.963684 160.948898,260.948883 
	C160.948898,260.948883 160.999924,260.999939 161.005646,260.553894 
	C161.013367,243.703735 161.015381,227.299622 161.017380,210.895508 
	C161.017380,210.895508 161.019897,211.012833 161.436096,211.007751 
	C178.251907,211.018829 194.651505,211.034958 211.051102,211.051102 
	C211.051102,211.051102 211.000137,210.998657 210.974945,210.972168 
z"/>
<path fill="#EEEEE9" opacity="1.000000" stroke="none" 
	d="
M211.028870,210.579681 
	C194.651505,211.034958 178.251907,211.018829 161.377548,211.011597 
	C160.875275,209.966461 160.847748,208.912384 160.771606,207.465729 
	C160.813492,192.012665 160.904007,176.952179 160.971878,161.420258 
	C177.335556,160.963654 193.721863,160.978500 210.579651,160.971130 
	C211.036285,177.335358 211.021469,193.721802 211.028870,210.579681 
z"/>
<path fill="#D7D7D7" opacity="1.000000" stroke="none" 
	d="
M95.057251,224.905487 
	C112.315521,217.467392 130.406830,221.715500 141.517944,235.620407 
	C126.441483,255.161697 97.459358,255.252197 80.835381,234.911530 
	C85.483681,231.590637 90.086517,228.302231 95.057251,224.905487 
z"/>
<path fill="#D6D6D6" opacity="1.000000" stroke="none" 
	d="
M122.485123,206.407410 
	C117.607681,211.504105 112.040985,212.726273 105.949860,210.288025 
	C100.644562,208.164352 97.535316,203.971039 97.030579,198.203964 
	C96.505569,192.205170 99.091644,187.577530 104.105751,184.424911 
	C109.732285,180.887207 117.738449,182.159866 122.215477,187.087158 
	C127.137978,192.504745 127.323639,199.346786 122.485123,206.407410 
z"/>
<path fill="#ECECE7" opacity="1.000000" stroke="none" 
	d="
M160.623627,211.054138 
	C161.015381,227.299622 161.013367,243.703735 161.031158,260.579407 
	C144.649338,261.036285 128.247742,261.021606 111.370819,261.012146 
	C113.505211,260.462738 116.104111,259.849915 118.726318,259.362457 
	C143.274857,254.798920 158.654312,237.234314 160.020416,212.180038 
	C160.038162,211.854782 160.157806,211.535080 160.623627,211.054138 
z"/>
<path fill="#EEEEE9" opacity="1.000000" stroke="none" 
	d="
M160.971130,261.420319 
	C177.335327,260.963684 193.721756,260.978516 210.579651,260.971130 
	C211.036285,277.335327 211.021469,293.721741 211.028870,310.579651 
	C194.664673,311.036316 178.278244,311.021484 161.420364,311.028870 
	C160.963730,294.664673 160.978546,278.278198 160.971130,261.420319 
z"/>
<path fill="#EEEEE9" opacity="1.000000" stroke="none" 
	d="
M161.028931,160.579376 
	C144.664703,161.035690 128.278214,161.020599 111.420250,161.028137 
	C110.963638,144.664444 110.978485,128.278137 110.971115,111.420357 
	C127.335327,110.963715 143.721756,110.978531 160.579651,110.971123 
	C161.036301,127.335251 161.021484,143.721603 161.028931,160.579376 
z"/>
</svg>