<svg version="1.1" id="Layer_1" xmlns="http://www.w3.org/2000/svg" xmlns:xlink="http://www.w3.org/1999/xlink" x="0px" y="0px"
	 width="100%" viewBox="0 0 420 420" enable-background="new 0 0 420 420" xml:space="preserve">
<path fill="#3D3D3D" opacity="1.000000" stroke="none" 
	d="
M1.000000,155.000000 
	C1.000000,103.348549 1.000000,52.197102 1.000000,1.022828 
	C140.943146,1.022828 280.886292,1.022828 420.914734,1.022828 
	C420.914734,140.901459 420.914734,280.802979 420.914734,420.852234 
	C281.000122,420.852234 141.000076,420.852234 1.000000,420.852234 
	C1.000000,332.447052 1.000000,243.973526 1.000000,155.000000 
M360.993408,160.111038 
	C360.978790,143.722504 360.964142,127.333961 361.892120,110.992897 
	C378.156586,110.992897 394.421021,110.992897 410.681091,110.992897 
	C410.681091,94.033821 410.681091,77.643394 410.681091,61.050476 
	C393.890625,61.050476 377.418030,61.050476 360.992889,60.107895 
	C360.992889,43.843746 360.992889,27.579601 360.992889,11.317987 
	C344.035065,11.317987 327.644928,11.317987 311.054535,11.317987 
	C311.054535,28.106806 311.054535,44.578632 310.110962,61.006588 
	C293.722473,61.021217 277.333954,61.035847 260.992889,60.107895 
	C260.992889,43.843750 260.992889,27.579605 260.992889,11.317980 
	C244.035065,11.317980 227.644958,11.317980 211.054565,11.317980 
	C211.054565,28.106791 211.054565,44.578621 210.110977,61.006592 
	C193.722458,61.021210 177.333954,61.035828 160.992905,60.107872 
	C160.992905,43.843723 160.992905,27.579576 160.992905,11.317983 
	C144.035065,11.317983 127.644958,11.317983 111.054588,11.317983 
	C111.054588,28.106792 111.054588,44.578617 110.110992,61.006592 
	C93.731171,61.011951 77.351341,61.017311 60.996300,60.082806 
	C60.996300,43.826309 60.996300,27.569813 60.996300,11.311029 
	C44.038502,11.311029 27.653753,11.311029 11.334658,11.311029 
	C11.334658,28.009445 11.334658,44.394638 11.334658,60.918621 
	C28.137026,60.918621 44.605316,60.918621 61.009247,61.867905 
	C61.024361,78.262085 61.039474,94.656258 60.110992,111.006592 
	C43.845711,111.006592 27.580427,111.006592 11.319370,111.006592 
	C11.319370,127.966072 11.319370,144.357025 11.319370,160.956604 
	C28.111244,160.956604 44.584801,160.956604 61.003757,161.897293 
	C61.001251,174.351334 60.968086,186.805527 61.035751,199.259186 
	C61.044044,200.784790 61.592419,202.307465 61.982059,204.660324 
	C61.627903,206.814560 61.273750,208.968811 59.997952,211.015991 
	C43.752728,211.015991 27.507502,211.015991 11.330988,211.015991 
	C11.330988,228.008728 11.330988,244.390549 11.330988,260.945374 
	C28.124290,260.945374 44.587395,260.945374 61.006599,261.888977 
	C61.022594,278.276154 61.038586,294.663300 60.110977,311.006592 
	C43.846291,311.006592 27.581606,311.006592 11.317627,311.006592 
	C11.317627,327.963715 11.317627,344.354065 11.317627,360.945465 
	C28.106319,360.945465 44.578392,360.945465 61.006592,361.889038 
	C61.006592,378.154022 61.006592,394.419037 61.006592,410.681458 
	C77.964981,410.681458 94.355637,410.681458 110.949539,410.681458 
	C110.949539,393.891113 110.949539,377.418274 111.892128,360.992859 
	C128.278229,360.977051 144.664337,360.961243 161.006607,361.889069 
	C161.006607,378.154053 161.006607,394.419037 161.006607,410.681458 
	C177.964966,410.681458 194.355621,410.681458 210.949554,410.681458 
	C210.949554,393.891083 210.949554,377.418243 211.892120,360.992889 
	C228.278244,360.977112 244.664383,360.961304 261.006592,361.889099 
	C261.006592,378.154083 261.006592,394.419067 261.006592,410.681458 
	C277.964966,410.681458 294.355652,410.681458 310.949463,410.681458 
	C310.949463,393.891144 310.949463,377.418304 311.892059,360.992889 
	C328.270874,360.987671 344.649719,360.982452 361.003693,361.917145 
	C361.003693,378.173645 361.003693,394.430145 361.003693,410.688995 
	C377.961456,410.688995 394.346191,410.688995 410.665375,410.688995 
	C410.665375,393.990601 410.665375,377.605408 410.665375,361.081329 
	C393.863037,361.081329 377.394714,361.081329 360.990784,360.132080 
	C360.977020,343.736572 360.963257,327.341064 361.892120,310.992889 
	C378.156952,310.992889 394.421814,310.992889 410.679993,310.992889 
	C410.679993,294.032318 410.679993,277.641510 410.679993,261.041138 
	C393.887543,261.041138 377.413971,261.041138 360.996796,260.101013 
	C360.978668,243.715881 360.960571,227.330750 361.885956,210.992935 
	C378.151184,210.992935 394.416412,210.992935 410.682739,210.992935 
	C410.682739,194.037506 410.682739,177.646927 410.682739,161.054626 
	C393.894135,161.054626 377.421814,161.054626 360.993408,160.111038 
z"/>
<path fill="#020202" opacity="1.000000" stroke="none" 
	d="
M60.919594,211.123047 
	C61.273750,208.968811 61.627903,206.814560 61.975304,203.857269 
	C67.085884,179.392517 85.509125,164.652771 111.296997,163.968369 
	C113.330666,164.353088 114.931763,164.817871 116.564972,165.010895 
	C129.217926,166.506287 139.188599,172.649689 147.191666,182.374359 
	C154.081375,190.746170 156.845306,200.630783 158.042297,211.555710 
	C157.671356,215.452499 157.531876,218.945007 156.969025,222.367905 
	C153.891251,241.084122 135.208832,258.737640 116.763641,260.063660 
	C114.533821,260.377289 112.705780,260.727417 110.424026,261.043304 
	C106.009354,260.913300 102.048378,260.817505 98.041939,260.364075 
	C97.476059,259.659058 97.001602,259.157806 96.428574,258.986755 
	C79.593498,253.960861 68.778450,242.832809 63.151852,226.363434 
	C62.836617,225.440704 61.918030,224.724121 61.232201,223.457184 
	C61.095955,219.042862 61.007774,215.082947 60.919594,211.123047 
M90.684059,227.030609 
	C86.780098,230.016785 82.876144,233.002960 78.968704,235.991806 
	C94.743774,256.181213 125.999222,256.067566 139.488174,236.390503 
	C126.832397,221.785690 108.568001,218.138489 90.684059,227.030609 
M96.172112,203.927948 
	C101.570000,212.431549 110.011162,214.941177 117.263084,210.198486 
	C123.688797,205.996109 125.900032,198.066605 122.501244,191.414246 
	C119.015991,184.592636 110.848457,181.597473 103.843796,184.572281 
	C96.591896,187.652084 93.446510,195.065887 96.172112,203.927948 
z"/>
<path fill="#EEEEE9" opacity="1.000000" stroke="none" 
	d="
M360.940430,261.041138 
	C377.413971,261.041138 393.887543,261.041138 410.679993,261.041138 
	C410.679993,277.641510 410.679993,294.032318 410.679993,310.992889 
	C394.421814,310.992889 378.156952,310.992889 361.446106,310.995850 
	C361.000122,310.998779 361.051331,311.051361 361.028992,310.579865 
	C361.021698,293.722260 361.036713,277.336121 361.020813,260.969055 
	C360.989929,260.988068 360.940430,261.041138 360.940430,261.041138 
z"/>
<path fill="#EEEEE9" opacity="1.000000" stroke="none" 
	d="
M61.073605,60.918621 
	C44.605316,60.918621 28.137026,60.918621 11.334658,60.918621 
	C11.334658,44.394638 11.334658,28.009445 11.334658,11.311029 
	C27.653753,11.311029 44.038502,11.311029 60.996300,11.311029 
	C60.996300,27.569813 60.996300,43.826309 61.009834,60.527573 
	C61.023365,60.972336 61.073605,60.918621 61.073605,60.918621 
z"/>
<path fill="#EEEEE9" opacity="1.000000" stroke="none" 
	d="
M60.458771,211.069519 
	C61.007774,215.082947 61.095955,219.042862 61.110336,223.917633 
	C61.007263,236.905441 60.977989,248.978378 60.974297,261.024963 
	C60.999882,260.998627 61.050495,260.945374 61.050495,260.945374 
	C44.587395,260.945374 28.124290,260.945374 11.330988,260.945374 
	C11.330988,244.390549 11.330988,228.008728 11.330988,211.015991 
	C27.507502,211.015991 43.752728,211.015991 60.458771,211.069519 
z"/>
<path fill="#EEEEE9" opacity="1.000000" stroke="none" 
	d="
M98.087410,260.721741 
	C102.048378,260.817505 106.009354,260.913300 110.477234,261.504333 
	C110.972321,278.350159 110.960503,294.700745 110.974335,311.025696 
	C111.000000,311.000000 111.051331,310.948639 110.579857,310.970978 
	C93.721809,310.978424 77.335243,310.963531 60.975010,310.974243 
	C61.001347,310.999878 61.054581,311.050476 61.054581,311.050476 
	C61.038586,294.663300 61.022594,278.276154 61.028549,261.417175 
	C61.050495,260.945374 60.999882,260.998627 61.445801,261.003418 
	C73.956947,260.912689 86.022179,260.817200 98.087410,260.721741 
z"/>
<path fill="#EEEEE9" opacity="1.000000" stroke="none" 
	d="
M360.926422,361.081329 
	C377.394714,361.081329 393.863037,361.081329 410.665375,361.081329 
	C410.665375,377.605408 410.665375,393.990601 410.665375,410.688995 
	C394.346191,410.688995 377.961456,410.688995 361.003693,410.688995 
	C361.003693,394.430145 361.003693,378.173645 360.990173,361.472351 
	C360.976654,361.027588 360.926422,361.081329 360.926422,361.081329 
z"/>
<path fill="#EEEEE9" opacity="1.000000" stroke="none" 
	d="
M61.050461,360.945465 
	C44.578392,360.945465 28.106319,360.945465 11.317627,360.945465 
	C11.317627,344.354065 11.317627,327.963715 11.317627,311.006592 
	C27.581606,311.006592 43.846291,311.006592 60.582779,311.028534 
	C61.054581,311.050476 61.001347,310.999878 60.997330,311.445740 
	C60.978432,328.278198 60.963551,344.664795 60.974266,361.025024 
	C60.999866,360.998688 61.050461,360.945465 61.050461,360.945465 
z"/>
<path fill="#EEEEE9" opacity="1.000000" stroke="none" 
	d="
M161.050446,360.945435 
	C144.664337,360.961243 128.278229,360.977051 111.446144,360.995789 
	C111.000160,360.998688 111.051331,361.051361 111.029007,360.579895 
	C111.021561,343.721832 111.036446,327.335236 111.051331,310.948639 
	C111.051331,310.948639 111.000000,311.000000 111.445808,311.003357 
	C128.277908,310.986267 144.664185,310.965881 161.028534,311.417297 
	C160.987274,328.276520 160.967972,344.663940 160.974243,361.025024 
	C160.999832,360.998688 161.050446,360.945435 161.050446,360.945435 
z"/>
<path fill="#EEEEE9" opacity="1.000000" stroke="none" 
	d="
M261.050507,360.945526 
	C244.664383,360.961304 228.278244,360.977112 211.446136,360.995789 
	C211.000168,360.998688 211.051331,361.051361 211.029007,360.579895 
	C210.986267,343.722137 210.965836,327.335815 211.417206,310.971436 
	C228.276169,310.977417 244.663345,310.961456 261.028564,311.417297 
	C260.987274,328.276520 260.967957,344.663910 260.974274,361.025024 
	C260.999908,360.998718 261.050507,360.945526 261.050507,360.945526 
z"/>
<path fill="#EEEEE9" opacity="1.000000" stroke="none" 
	d="
M360.974792,310.972168 
	C360.963257,327.341064 360.977020,343.736572 360.958618,360.606689 
	C360.926422,361.081329 360.976654,361.027588 361.002594,361.002441 
	C344.649719,360.982452 328.270874,360.987671 311.446075,360.995789 
	C311.000092,360.998718 311.051331,361.051331 311.028992,360.579895 
	C310.987610,343.720764 310.968567,327.333130 311.420807,310.969177 
	C328.278534,311.012390 344.664917,311.031891 361.051331,311.051361 
	C361.051331,311.051361 361.000122,310.998779 360.974792,310.972168 
z"/>
<path fill="#EEEEE9" opacity="1.000000" stroke="none" 
	d="
M110.974854,360.972046 
	C110.949539,377.418274 110.949539,393.891113 110.949539,410.681458 
	C94.355637,410.681458 77.964981,410.681458 61.006592,410.681458 
	C61.006592,394.419037 61.006592,378.154022 61.028526,361.417236 
	C61.050461,360.945465 60.999866,360.998688 61.445744,361.002686 
	C78.278191,361.021576 94.664757,361.036469 111.051331,361.051361 
	C111.051331,361.051361 111.000160,360.998688 110.974854,360.972046 
z"/>
<path fill="#EEEEE9" opacity="1.000000" stroke="none" 
	d="
M210.974854,360.972046 
	C210.949554,377.418243 210.949554,393.891083 210.949554,410.681458 
	C194.355621,410.681458 177.964966,410.681458 161.006607,410.681458 
	C161.006607,394.419037 161.006607,378.154053 161.028534,361.417236 
	C161.050446,360.945435 160.999832,360.998688 161.445740,361.002686 
	C178.278198,361.021576 194.664764,361.036469 211.051331,361.051361 
	C211.051331,361.051361 211.000168,360.998688 210.974854,360.972046 
z"/>
<path fill="#EEEEE9" opacity="1.000000" stroke="none" 
	d="
M310.974792,360.972107 
	C310.949463,377.418304 310.949463,393.891144 310.949463,410.681458 
	C294.355652,410.681458 277.964966,410.681458 261.006592,410.681458 
	C261.006592,394.419067 261.006592,378.154083 261.028564,361.417297 
	C261.050507,360.945526 260.999908,360.998718 261.445770,361.002686 
	C278.278198,361.021576 294.664764,361.036438 311.051331,361.051331 
	C311.051331,361.051331 311.000092,360.998718 310.974792,360.972107 
z"/>
<path fill="#EEEEE9" opacity="1.000000" stroke="none" 
	d="
M111.054588,61.050442 
	C111.054588,44.578617 111.054588,28.106792 111.054588,11.317983 
	C127.644958,11.317983 144.035065,11.317983 160.992905,11.317983 
	C160.992905,27.579576 160.992905,43.843723 160.995789,60.553856 
	C160.998657,60.999840 161.051346,60.948666 160.579910,60.970989 
	C143.721878,60.978428 127.335266,60.963543 110.975006,60.974247 
	C111.001350,60.999832 111.054588,61.050442 111.054588,61.050442 
z"/>
<path fill="#EEEEE9" opacity="1.000000" stroke="none" 
	d="
M211.054565,61.050449 
	C211.054565,44.578621 211.054565,28.106791 211.054565,11.317980 
	C227.644958,11.317980 244.035065,11.317980 260.992889,11.317980 
	C260.992889,27.579605 260.992889,43.843750 260.995789,60.553875 
	C260.998688,60.999855 261.051361,60.948673 260.579895,60.970993 
	C243.721832,60.978432 227.335251,60.963547 210.975006,60.974255 
	C211.001343,60.999844 211.054565,61.050449 211.054565,61.050449 
z"/>
<path fill="#EEEEE9" opacity="1.000000" stroke="none" 
	d="
M311.054535,61.050461 
	C311.054535,44.578632 311.054535,28.106806 311.054535,11.317987 
	C327.644928,11.317987 344.035065,11.317987 360.992889,11.317987 
	C360.992889,27.579601 360.992889,43.843746 360.995789,60.553875 
	C360.998688,60.999855 361.051361,60.948673 360.579865,60.970993 
	C343.721802,60.978428 327.335205,60.963547 310.974976,60.974266 
	C311.001312,60.999866 311.054535,61.050461 311.054535,61.050461 
z"/>
<path fill="#EEEEE9" opacity="1.000000" stroke="none" 
	d="
M61.054592,111.050438 
	C61.039474,94.656258 61.024361,78.262085 61.041428,61.393265 
	C61.073605,60.918621 61.023365,60.972336 60.997444,60.997505 
	C77.351341,61.017311 93.731171,61.011951 110.582794,61.028519 
	C111.054588,61.050442 111.001350,60.999832 110.997330,61.445724 
	C111.013741,78.277893 111.034164,94.664169 110.582794,111.028519 
	C93.723549,110.987289 77.336105,110.967979 60.975014,110.974251 
	C61.001358,110.999832 61.054592,111.050438 61.054592,111.050438 
z"/>
<path fill="#EEEEE9" opacity="1.000000" stroke="none" 
	d="
M160.972046,61.025146 
	C177.333954,61.035828 193.722458,61.021210 210.582764,61.028519 
	C211.054565,61.050449 211.001343,60.999844 210.997330,61.445732 
	C211.013733,78.277901 211.034134,94.664177 210.582764,111.028534 
	C193.722473,111.021225 177.333954,111.035843 160.969177,110.579163 
	C161.012390,93.721474 161.031860,77.335068 161.051346,60.948666 
	C161.051346,60.948666 160.998657,60.999840 160.972046,61.025146 
z"/>
<path fill="#EEEEE9" opacity="1.000000" stroke="none" 
	d="
M260.972076,61.025162 
	C277.333954,61.035847 293.722473,61.021217 310.582764,61.028526 
	C311.054535,61.050461 311.001312,60.999866 310.997314,61.445744 
	C310.978424,78.278191 310.963531,94.664764 310.974304,111.025665 
	C311.000000,111.000000 311.051361,110.948669 310.579895,110.970993 
	C293.720764,111.012367 277.333099,111.031418 260.969177,110.579163 
	C261.012360,93.721474 261.031860,77.335075 261.051361,60.948673 
	C261.051361,60.948673 260.998688,60.999855 260.972076,61.025162 
z"/>
<path fill="#EEEEE9" opacity="1.000000" stroke="none" 
	d="
M360.972076,61.025166 
	C377.418030,61.050476 393.890625,61.050476 410.681091,61.050476 
	C410.681091,77.643394 410.681091,94.033821 410.681091,110.992897 
	C394.421021,110.992897 378.156586,110.992897 361.446136,110.995773 
	C361.000153,110.998657 361.051361,111.051331 361.029022,110.579887 
	C361.021576,93.721855 361.036469,77.335266 361.051361,60.948673 
	C361.051361,60.948673 360.998688,60.999855 360.972076,61.025166 
z"/>
<path fill="#EEEEE9" opacity="1.000000" stroke="none" 
	d="
M61.058361,160.956604 
	C44.584801,160.956604 28.111244,160.956604 11.319370,160.956604 
	C11.319370,144.357025 11.319370,127.966072 11.319370,111.006592 
	C27.580427,111.006592 43.845711,111.006592 60.582794,111.028519 
	C61.054592,111.050438 61.001358,110.999832 60.997330,111.445724 
	C60.978313,128.277802 60.963318,144.664001 60.978519,161.029938 
	C61.008717,161.009705 61.058361,160.956604 61.058361,160.956604 
z"/>
<path fill="#EEEEE9" opacity="1.000000" stroke="none" 
	d="
M360.949493,161.054626 
	C377.421814,161.054626 393.894135,161.054626 410.682739,161.054626 
	C410.682739,177.646927 410.682739,194.037506 410.682739,210.992935 
	C394.416412,210.992935 378.151184,210.992935 361.438965,210.996124 
	C360.991943,210.999313 361.057007,211.032471 360.955994,210.673828 
	C360.810974,209.572205 360.766968,208.829224 360.844360,207.625931 
	C360.994324,191.759995 361.022797,176.354340 361.025696,160.975037 
	C361.000122,161.001389 360.949493,161.054626 360.949493,161.054626 
z"/>
<path fill="#EEEEE9" opacity="1.000000" stroke="none" 
	d="
M360.974854,110.972046 
	C360.964142,127.333961 360.978790,143.722504 360.971436,160.582825 
	C360.949493,161.054626 361.000122,161.001389 360.554199,160.996765 
	C343.721832,161.012573 327.335388,161.033005 310.971130,160.581879 
	C311.012695,143.723129 311.032013,127.335899 311.051361,110.948669 
	C311.051361,110.948669 311.000000,111.000000 311.445801,111.003342 
	C328.278198,111.021576 344.664795,111.036453 361.051361,111.051331 
	C361.051361,111.051331 361.000153,110.998657 360.974854,110.972046 
z"/>
<path fill="#ECECE8" opacity="1.000000" stroke="none" 
	d="
M110.879303,163.922531 
	C85.509125,164.652771 67.085884,179.392517 61.929527,203.442841 
	C61.592419,202.307465 61.044044,200.784790 61.035751,199.259186 
	C60.968086,186.805527 61.001251,174.351334 61.031059,161.426941 
	C61.058361,160.956604 61.008717,161.009705 61.449963,161.006256 
	C78.279778,160.986084 94.668343,160.969345 111.033478,161.324295 
	C110.966461,162.438171 110.922882,163.180344 110.879303,163.922531 
z"/>
<path fill="#ECECE7" opacity="1.000000" stroke="none" 
	d="
M360.967194,210.972473 
	C360.960571,227.330750 360.978668,243.715881 360.968628,260.571075 
	C360.940430,261.041138 360.989929,260.988068 360.549408,260.992981 
	C347.981537,261.000031 335.854004,261.033752 323.727051,260.964539 
	C322.201202,260.955841 320.678467,260.405426 319.556213,260.076355 
	C338.270935,257.866394 355.988098,240.686462 359.022583,222.207275 
	C359.635986,218.471710 360.375580,214.756866 361.057007,211.032471 
	C361.057007,211.032471 360.991943,210.999313 360.967194,210.972473 
z"/>
<path fill="#3D3D3D" opacity="1.000000" stroke="none" 
	d="
M161.050476,310.945465 
	C144.664185,310.965881 128.277908,310.986267 111.420151,311.029022 
	C110.960503,294.700745 110.972321,278.350159 110.930939,261.538513 
	C112.705780,260.727417 114.533821,260.377289 116.976799,260.423157 
	C132.074356,260.858704 146.556976,260.898254 161.022461,261.410583 
	C160.986450,278.272705 160.967560,294.662018 160.974274,311.025024 
	C160.999878,310.998718 161.050476,310.945465 161.050476,310.945465 
z"/>
<path fill="#D7D7D7" opacity="1.000000" stroke="none" 
	d="
M91.039108,226.908630 
	C108.568001,218.138489 126.832397,221.785690 139.488174,236.390503 
	C125.999222,256.067566 94.743774,256.181213 78.968704,235.991806 
	C82.876144,233.002960 86.780098,230.016785 91.039108,226.908630 
z"/>
<path fill="#3D3D3D" opacity="1.000000" stroke="none" 
	d="
M111.296997,163.968369 
	C110.922882,163.180344 110.966461,162.438171 111.006973,161.349548 
	C111.003906,161.003098 110.948570,161.051025 111.420029,161.028320 
	C128.278137,161.020752 144.664795,161.035889 161.024796,161.026428 
	C160.998154,161.001846 160.948975,160.948563 160.971680,161.419983 
	C161.009399,178.281708 161.024429,194.671997 160.669144,211.034073 
	C159.558670,211.043671 158.818481,211.081482 158.078308,211.119293 
	C156.845306,200.630783 154.081375,190.746170 147.191666,182.374359 
	C139.188599,172.649689 129.217926,166.506287 116.564972,165.010895 
	C114.931763,164.817871 113.330666,164.353088 111.296997,163.968369 
z"/>
<path fill="#D6D6D6" opacity="1.000000" stroke="none" 
	d="
M96.063110,203.548248 
	C93.446510,195.065887 96.591896,187.652084 103.843796,184.572281 
	C110.848457,181.597473 119.015991,184.592636 122.501244,191.414246 
	C125.900032,198.066605 123.688797,205.996109 117.263084,210.198486 
	C110.011162,214.941177 101.570000,212.431549 96.063110,203.548248 
z"/>
<path fill="#ECECE8" opacity="1.000000" stroke="none" 
	d="
M158.042297,211.555710 
	C158.818481,211.081482 159.558670,211.043671 160.643860,211.007858 
	C160.988876,211.009857 160.949814,210.948318 160.973480,211.419724 
	C160.981369,228.277985 160.965591,244.664841 160.969299,261.020874 
	C160.988770,260.990082 161.039597,260.937805 161.039597,260.937805 
	C146.556976,260.898254 132.074356,260.858704 117.378571,260.459656 
	C135.208832,258.737640 153.891251,241.084122 156.969025,222.367905 
	C157.531876,218.945007 157.671356,215.452499 158.042297,211.555710 
z"/>
<path fill="#3E3E3E" opacity="1.000000" stroke="none" 
	d="
M98.041939,260.364075 
	C86.022179,260.817200 73.956947,260.912689 61.420216,261.029724 
	C60.977989,248.978378 61.007263,236.905441 61.158401,224.372055 
	C61.918030,224.724121 62.836617,225.440704 63.151852,226.363434 
	C68.778450,242.832809 79.593498,253.960861 96.428574,258.986755 
	C97.001602,259.157806 97.476059,259.659058 98.041939,260.364075 
z"/>
<path fill="#3D3D3D" opacity="1.000000" stroke="none" 
	d="
M319.154266,260.106018 
	C320.678467,260.405426 322.201202,260.955841 323.727051,260.964539 
	C335.854004,261.033752 347.981537,261.000031 360.580322,260.973938 
	C361.036713,277.336121 361.021698,293.722260 361.028992,310.579865 
	C344.664917,311.031891 328.278534,311.012390 311.446106,310.995789 
	C311.000092,310.998718 311.051331,311.051361 311.028992,310.579865 
	C310.962402,293.766571 310.918091,277.424774 311.297668,261.057556 
	C314.199127,260.723450 316.676697,260.414734 319.154266,260.106018 
z"/>
<path fill="#3D3D3D" opacity="1.000000" stroke="none" 
	d="
M111.029007,360.579895 
	C94.664757,361.036469 78.278191,361.021576 61.420143,361.029022 
	C60.963551,344.664795 60.978432,328.278198 60.970993,311.420135 
	C77.335243,310.963531 93.721809,310.978424 110.579857,310.970978 
	C111.036446,327.335236 111.021561,343.721832 111.029007,360.579895 
z"/>
<path fill="#3D3D3D" opacity="1.000000" stroke="none" 
	d="
M211.029007,360.579895 
	C194.664764,361.036469 178.278198,361.021576 161.420135,361.029022 
	C160.967972,344.663940 160.987274,328.276520 161.028534,311.417297 
	C161.050476,310.945465 160.999878,310.998718 161.445755,311.002686 
	C178.278198,311.021576 194.664764,311.036469 211.024994,311.025757 
	C210.998657,311.000153 210.945419,310.949524 210.945419,310.949524 
	C210.965836,327.335815 210.986267,343.722137 211.029007,360.579895 
z"/>
<path fill="#3D3D3D" opacity="1.000000" stroke="none" 
	d="
M261.050507,310.945496 
	C244.663345,310.961456 228.276169,310.977417 211.417206,310.971436 
	C210.945419,310.949524 210.998657,311.000153 211.002655,310.554260 
	C211.022629,293.722076 211.038589,277.335815 211.027924,260.974823 
	C211.001312,261.000122 210.948669,261.051361 211.420105,261.029022 
	C228.279205,260.987610 244.666870,260.968536 261.030823,261.420776 
	C260.987610,278.278473 260.968109,294.664917 260.974274,311.025024 
	C260.999908,310.998718 261.050507,310.945526 261.050507,310.945496 
z"/>
<path fill="#3D3D3D" opacity="1.000000" stroke="none" 
	d="
M311.028992,360.579895 
	C294.664764,361.036438 278.278198,361.021576 261.420135,361.028992 
	C260.967957,344.663910 260.987274,328.276520 261.028564,311.417297 
	C261.050507,310.945526 260.999908,310.998718 261.445770,311.002716 
	C278.278198,311.021606 294.664764,311.036499 311.051331,311.051392 
	C311.051331,311.051361 311.000092,310.998718 310.974792,310.972107 
	C310.968567,327.333130 310.987610,343.720764 311.028992,360.579895 
z"/>
<path fill="#3D3D3D" opacity="1.000000" stroke="none" 
	d="
M160.579910,60.970989 
	C161.031860,77.335068 161.012390,93.721474 160.995789,110.553864 
	C160.998672,110.999847 161.051346,110.948662 160.579910,110.970993 
	C143.721878,110.978432 127.335266,110.963547 110.975006,110.974251 
	C111.001358,110.999840 111.054588,111.050446 111.054596,111.050446 
	C111.034164,94.664169 111.013741,78.277893 110.970993,61.420139 
	C127.335266,60.963543 143.721878,60.978428 160.579910,60.970989 
z"/>
<path fill="#3D3D3D" opacity="1.000000" stroke="none" 
	d="
M260.579895,60.970993 
	C261.031860,77.335075 261.012360,93.721474 260.995789,110.553864 
	C260.998688,110.999855 261.051361,110.948669 260.579895,110.970993 
	C243.721832,110.978432 227.335251,110.963547 210.974991,110.974258 
	C211.001328,110.999847 211.054550,111.050461 211.054550,111.050461 
	C211.034134,94.664177 211.013733,78.277901 210.970978,61.420143 
	C227.335251,60.963547 243.721832,60.978432 260.579895,60.970993 
z"/>
<path fill="#3D3D3D" opacity="1.000000" stroke="none" 
	d="
M361.029022,110.579887 
	C344.664795,111.036453 328.278198,111.021576 311.420135,111.029007 
	C310.963531,94.664764 310.978424,78.278191 310.970978,61.420143 
	C327.335205,60.963547 343.721802,60.978428 360.579865,60.970993 
	C361.036469,77.335266 361.021576,93.721855 361.029022,110.579887 
z"/>
<path fill="#3D3D3D" opacity="1.000000" stroke="none" 
	d="
M111.030411,160.977844 
	C94.668343,160.969345 78.279778,160.986084 61.419765,161.026505 
	C60.963318,144.664001 60.978313,128.277802 60.970985,111.420143 
	C77.336105,110.967979 93.723549,110.987289 110.582794,111.028519 
	C111.054588,111.050446 111.001358,110.999840 110.997330,111.445724 
	C110.978394,128.278091 110.963486,144.664551 110.948570,161.051025 
	C110.948570,161.051025 111.003906,161.003098 111.030411,160.977844 
z"/>
<path fill="#3D3D3D" opacity="1.000000" stroke="none" 
	d="
M160.972061,111.025154 
	C177.333954,111.035843 193.722473,111.021225 210.582764,111.028534 
	C211.054550,111.050461 211.001328,110.999847 210.997314,111.445732 
	C211.012360,128.279266 211.031418,144.666901 210.579193,161.030823 
	C193.721603,160.987579 177.335281,160.968063 160.948975,160.948563 
	C160.948975,160.948563 160.998154,161.001846 161.002441,160.554993 
	C161.021591,143.721634 161.036469,127.335152 161.051361,110.948662 
	C161.051346,110.948662 160.998672,110.999847 160.972061,111.025154 
z"/>
<path fill="#3D3D3D" opacity="1.000000" stroke="none" 
	d="
M310.579895,110.970993 
	C311.032013,127.335899 311.012695,143.723129 310.997711,160.556702 
	C311.002075,161.003067 311.051300,160.948837 310.579773,160.969147 
	C293.724487,161.012497 277.340729,161.035522 260.975677,160.586548 
	C261.013367,143.725906 261.032379,127.337288 261.051361,110.948669 
	C261.051361,110.948669 260.998688,110.999855 260.972046,111.025162 
	C277.333099,111.031418 293.720764,111.012367 310.579895,110.970993 
z"/>
<path fill="#020202" opacity="1.000000" stroke="none" 
	d="
M319.556213,260.076355 
	C316.676697,260.414734 314.199127,260.723450 310.850708,261.016785 
	C306.683228,260.908112 303.386627,260.814850 300.044678,260.363983 
	C299.475647,259.658325 298.997742,259.151855 298.421539,258.985077 
	C276.414368,252.616104 263.517548,233.989487 262.970093,210.465912 
	C265.037109,183.802841 284.268097,165.264694 311.311401,163.942627 
	C313.868073,164.308868 315.981201,164.712250 318.111237,164.982635 
	C339.789703,167.734543 355.976074,183.784317 359.026001,205.465775 
	C359.157471,206.400330 360.137970,207.215454 360.722931,208.086227 
	C360.766968,208.829224 360.810974,209.572205 360.955994,210.673828 
	C360.375580,214.756866 359.635986,218.471710 359.022583,222.207275 
	C355.988098,240.686462 338.270935,257.866394 319.556213,260.076355 
M333.429993,228.978012 
	C313.624390,215.609604 290.359344,223.867767 281.592743,236.850784 
	C297.578613,256.252838 326.679779,256.112000 341.809570,236.222061 
	C339.227692,233.965652 336.622314,231.688736 333.429993,228.978012 
M311.497803,212.495178 
	C312.322205,212.378632 313.151001,212.286972 313.970306,212.141693 
	C321.985718,210.720413 327.302521,203.255051 325.915588,195.381134 
	C324.509460,187.398087 316.454468,182.077820 308.454437,183.848129 
	C301.313354,185.428345 296.755859,191.290146 296.990906,198.592484 
	C297.226959,205.926193 302.387115,211.126984 311.497803,212.495178 
z"/>
<path fill="#3D3D3D" opacity="1.000000" stroke="none" 
	d="
M360.844360,207.625931 
	C360.137970,207.215454 359.157471,206.400330 359.026001,205.465775 
	C355.976074,183.784317 339.789703,167.734543 318.111237,164.982635 
	C315.981201,164.712250 313.868073,164.308868 311.366638,163.574402 
	C311.007904,162.437317 311.029633,161.693085 311.051331,160.948837 
	C311.051300,160.948837 311.002075,161.003067 310.975525,161.028244 
	C327.335388,161.033005 343.721832,161.012573 360.579773,160.970428 
	C361.022797,176.354340 360.994324,191.759995 360.844360,207.625931 
z"/>
<path fill="#EEEEE9" opacity="1.000000" stroke="none" 
	d="
M211.054565,260.949524 
	C211.038589,277.335815 211.022629,293.722076 211.028992,310.579865 
	C194.664764,311.036469 178.278198,311.021576 161.420135,311.029022 
	C160.967560,294.662018 160.986450,278.272705 161.022461,261.410583 
	C161.039597,260.937805 160.988770,260.990082 161.440689,260.998413 
	C178.279922,260.987671 194.667252,260.968597 211.054565,260.949524 
z"/>
<path fill="#EEEEE9" opacity="1.000000" stroke="none" 
	d="
M160.579926,110.970993 
	C161.036469,127.335152 161.021591,143.721634 161.029083,160.579575 
	C144.664795,161.035889 128.278137,161.020752 111.420029,161.028320 
	C110.963486,144.664551 110.978394,128.278091 110.970985,111.420135 
	C127.335266,110.963547 143.721878,110.978432 160.579926,110.970993 
z"/>
<path fill="#EEEEE9" opacity="1.000000" stroke="none" 
	d="
M160.971680,161.419983 
	C177.335281,160.968063 193.721603,160.987579 210.553894,161.004196 
	C210.999878,161.001297 210.948669,160.948654 210.970978,161.420135 
	C210.978424,178.278183 210.963531,194.664749 210.974243,211.024994 
	C210.999847,210.998672 211.050461,210.945419 210.579178,210.969162 
	C193.721863,210.978043 177.335846,210.963181 160.949814,210.948318 
	C160.949814,210.948318 160.988876,211.009857 161.014160,211.036072 
	C161.024429,194.671997 161.009399,178.281708 160.971680,161.419983 
z"/>
<path fill="#3D3D3D" opacity="1.000000" stroke="none" 
	d="
M160.973480,211.419724 
	C177.335846,210.963181 193.721863,210.978043 210.557251,211.440964 
	C210.987289,228.276474 210.967987,244.663910 210.948669,261.051361 
	C210.948669,261.051361 211.001312,261.000122 211.027939,260.974823 
	C194.667252,260.968597 178.279922,260.987671 161.421204,261.029236 
	C160.965591,244.664841 160.981369,228.277985 160.973480,211.419724 
z"/>
<path fill="#EEEEE9" opacity="1.000000" stroke="none" 
	d="
M300.089996,260.721588 
	C303.386627,260.814850 306.683228,260.908112 310.426819,261.042175 
	C310.918091,277.424774 310.962402,293.766571 311.028992,310.579895 
	C294.664764,311.036499 278.278198,311.021606 261.420135,311.029022 
	C260.968109,294.664917 260.987610,278.278473 261.004211,261.446045 
	C261.001312,261.000061 260.948700,261.051300 261.420227,261.029602 
	C274.624481,260.912476 287.357239,260.817017 300.089996,260.721588 
z"/>
<path fill="#EEEEE9" opacity="1.000000" stroke="none" 
	d="
M211.420105,261.029022 
	C210.967987,244.663910 210.987289,228.276474 211.028534,211.417221 
	C211.050461,210.945419 210.999847,210.998672 211.445724,211.002686 
	C228.277786,211.021683 244.663986,211.036682 261.028625,211.022247 
	C261.007080,210.992798 260.948608,210.949188 260.970337,211.420624 
	C260.977600,228.278473 260.963135,244.664886 260.948700,261.051300 
	C260.948700,261.051300 261.001312,261.000061 261.027924,260.974762 
	C244.666870,260.968536 228.279205,260.987610 211.420105,261.029022 
z"/>
<path fill="#EEEEE9" opacity="1.000000" stroke="none" 
	d="
M260.579895,110.970993 
	C261.032379,127.337288 261.013367,143.725906 261.002136,160.561661 
	C261.009857,161.008789 261.050171,160.948318 260.578796,160.970795 
	C243.721176,160.978409 227.334915,160.963531 210.948669,160.948669 
	C210.948669,160.948654 210.999878,161.001297 211.025177,161.027924 
	C211.031418,144.666901 211.012360,128.279266 210.970978,111.420135 
	C227.335251,110.963547 243.721832,110.978432 260.579895,110.970993 
z"/>
<path fill="#ECECE7" opacity="1.000000" stroke="none" 
	d="
M310.579773,160.969147 
	C311.029633,161.693085 311.007904,162.437317 310.930939,163.549805 
	C284.268097,165.264694 265.037109,183.802841 262.643616,210.518860 
	C261.829498,210.973434 261.389038,210.961304 260.948608,210.949188 
	C260.948608,210.949188 261.007080,210.992798 261.004913,210.550797 
	C261.018555,193.721970 261.034363,177.335144 261.050171,160.948318 
	C261.050171,160.948318 261.009857,161.008789 260.983398,161.033661 
	C277.340729,161.035522 293.724487,161.012497 310.579773,160.969147 
z"/>
<path fill="#D7D7D7" opacity="1.000000" stroke="none" 
	d="
M333.723480,229.194916 
	C336.622314,231.688736 339.227692,233.965652 341.809570,236.222061 
	C326.679779,256.112000 297.578613,256.252838 281.592743,236.850784 
	C290.359344,223.867767 313.624390,215.609604 333.723480,229.194916 
z"/>
<path fill="#D6D6D6" opacity="1.000000" stroke="none" 
	d="
M311.110535,212.464066 
	C302.387115,211.126984 297.226959,205.926193 296.990906,198.592484 
	C296.755859,191.290146 301.313354,185.428345 308.454437,183.848129 
	C316.454468,182.077820 324.509460,187.398087 325.915588,195.381134 
	C327.302521,203.255051 321.985718,210.720413 313.970306,212.141693 
	C313.151001,212.286972 312.322205,212.378632 311.110535,212.464066 
z"/>
<path fill="#3D3D3D" opacity="1.000000" stroke="none" 
	d="
M260.970337,211.420624 
	C261.389038,210.961304 261.829498,210.973434 262.596405,210.932632 
	C263.517548,233.989487 276.414368,252.616104 298.421539,258.985077 
	C298.997742,259.151855 299.475647,259.658325 300.044678,260.363983 
	C287.357239,260.817017 274.624481,260.912476 261.420227,261.029602 
	C260.963135,244.664886 260.977600,228.278473 260.970337,211.420624 
z"/>
<path fill="#3D3D3D" opacity="1.000000" stroke="none" 
	d="
M260.578796,160.970795 
	C261.034363,177.335144 261.018555,193.721970 261.026459,210.580231 
	C244.663986,211.036682 228.277786,211.021683 211.420135,211.029022 
	C210.963531,194.664749 210.978424,178.278183 210.970978,161.420135 
	C227.334915,160.963531 243.721176,160.978409 260.578796,160.970795 
z"/>
</svg>